/* XPM */
static char *result[] = {
/* columns rows colors chars-per-pixel */
"64 64 6 1 ",
"  c #9BCCEC",
". c #72683E",
"X c #FFF83A",
"o c #F8D634",
"O c #E8C831",
"+ c #DFB500",
/* pixels */
"                                                                ",
"                                                                ",
"                                                                ",
"                                                                ",
"                                                                ",
"                                                                ",
"                                                                ",
"                                                                ",
"                                                                ",
"                                                                ",
"                                                                ",
"                                                                ",
"                                                                ",
"                                                                ",
"                                                                ",
"                                                                ",
"                                                                ",
"                                                                ",
"                                                                ",
"                                                                ",
"                                                                ",
"                                                                ",
"                                                                ",
"                              ....                              ",
"                             ..XXX.                             ",
"                             ..ooo.                             ",
"                             .O.XXX.                            ",
"                            .+X.ooo.                            ",
"                            .OX.XXX.                            ",
"                            .XXO.ooo.                           ",
"                            .XX+.XXX.                           ",
"                            .+X+.XXX.                           ",
"                            .OXO.ooo.                           ",
"                            .OXO.XXX.                           ",
"                            .OXO.ooo.                           ",
"                            .O+.+++.                            ",
"                            .+O.ooo.                            ",
"                             .O.+++.                            ",
"                             ..ooo.                             ",
"                             ..+++.                             ",
"                              ....                              ",
"                                                                ",
"                                                                ",
"                                                                ",
"                                                                ",
"                                                                ",
"                                                                ",
"                                                                ",
"                                                                ",
"                                                                ",
"                                                                ",
"                                                                ",
"                                                                ",
"                                                                ",
"                                                                ",
"                                                                ",
"                                                                ",
"                                                                ",
"                                                                ",
"                                                                ",
"                                                                ",
"                                                                ",
"                                                                ",
"                                                                "
};
