/* XPM */
static char *result[] = {
/* columns rows colors chars-per-pixel */
"64 64 6 1 ",
"  c #9BCCEC",
". c #72683E",
"X c #FFF83A",
"o c #F8D634",
"O c #E8C831",
"+ c #DFB500",
/* pixels */
"                                                                ",
"                                                                ",
"                                                                ",
"                                                                ",
"                                                                ",
"                                                                ",
"                                                                ",
"                                                                ",
"                                                                ",
"                                                                ",
"                                                                ",
"                                                                ",
"                                                                ",
"                                                                ",
"                                                                ",
"                                                                ",
"                                                                ",
"                                                                ",
"                                                                ",
"                                                                ",
"                                                                ",
"                                                                ",
"                                                                ",
"                               ....                             ",
"                              .XXX..                            ",
"                              .ooo..                            ",
"                             .XXX.O.                            ",
"                             .ooo.X+.                           ",
"                             .XXX.XO.                           ",
"                            .ooo.OXX.                           ",
"                            .XXX.+XX.                           ",
"                            .XXX.+X+.                           ",
"                            .ooo.OXO.                           ",
"                            .XXX.OXO.                           ",
"                            .ooo.OXO.                           ",
"                             .+++.+O.                           ",
"                             .ooo.O+.                           ",
"                             .+++.O.                            ",
"                              .ooo..                            ",
"                              .+++..                            ",
"                               ....                             ",
"                                                                ",
"                                                                ",
"                                                                ",
"                                                                ",
"                                                                ",
"                                                                ",
"                                                                ",
"                                                                ",
"                                                                ",
"                                                                ",
"                                                                ",
"                                                                ",
"                                                                ",
"                                                                ",
"                                                                ",
"                                                                ",
"                                                                ",
"                                                                ",
"                                                                ",
"                                                                ",
"                                                                ",
"                                                                ",
"                                                                "
};
