/* XPM */
static char *result[] = {
/* columns rows colors chars-per-pixel */
"64 64 5 1 ",
"  c #9BCCEC",
". c #72683E",
"X c #FFF83A",
"o c #E8C831",
"O c #DFB500",
/* pixels */
"                                                                ",
"                                                                ",
"                                                                ",
"                                                                ",
"                                                                ",
"                                                                ",
"                                                                ",
"                                                                ",
"                                                                ",
"                                                                ",
"                                                                ",
"                                                                ",
"                                                                ",
"                                                                ",
"                                                                ",
"                                                                ",
"                                                                ",
"                                                                ",
"                                                                ",
"                                                                ",
"                                                                ",
"                                                                ",
"                                                                ",
"                             ......                             ",
"                           ..XXXXXX..                           ",
"                          .XXooooooXX.                          ",
"                         .XooooXXooooX.                         ",
"                        .XooXooXXooXooX.                        ",
"                        .XooXooXXooXooX.                        ",
"                       .XooXXooXXooXXooX.                       ",
"                       .XooXXooXXooXXooX.                       ",
"                       .oooXXXXXXXXXXooo.                       ",
"                       .oooOOOOXXOOOOooo.                       ",
"                       .oooooooXXooooooo.                       ",
"                       .oooooooXXooooooo.                       ",
"                        .OoooooXXoooooO.                        ",
"                        .OoooooXXoooooO.                        ",
"                         .OooooOOooooO.                         ",
"                          .OOoooooooO.                          ",
"                           ..OOOOOO..                           ",
"                             ......                             ",
"                                                                ",
"                                                                ",
"                                                                ",
"                                                                ",
"                                                                ",
"                                                                ",
"                                                                ",
"                                                                ",
"                                                                ",
"                                                                ",
"                                                                ",
"                                                                ",
"                                                                ",
"                                                                ",
"                                                                ",
"                                                                ",
"                                                                ",
"                                                                ",
"                                                                ",
"                                                                ",
"                                                                ",
"                                                                ",
"                                                                "
};
