/* XPM */
static char *result[] = {
/* columns rows colors chars-per-pixel */
"64 64 5 1 ",
"  c #9BCCEC",
". c #72683E",
"X c #FFF83A",
"o c #F8D634",
"O c #DFB500",
/* pixels */
"                                                                ",
"                                                                ",
"                                                                ",
"                                                                ",
"                                                                ",
"                                                                ",
"                                                                ",
"                                                                ",
"                                                                ",
"                                                                ",
"                                                                ",
"                                                                ",
"                                                                ",
"                                                                ",
"                                                                ",
"                                                                ",
"                                                                ",
"                                                                ",
"                                                                ",
"                                                                ",
"                                                                ",
"                                                                ",
"                                                                ",
"                             ......                             ",
"                            .XXX.XX.                            ",
"                           .XoooX.oo.                           ",
"                          .XooXXoX.XX.                          ",
"                          .XoXXXoX.oo.                          ",
"                          .XoXXXoX.XX.                          ",
"                         .XoXXXXXoX.oo.                         ",
"                         .XoXXXXXoX.XX.                         ",
"                         .ooXXXXXoo.XX.                         ",
"                         .oooXXXOoo.oo.                         ",
"                         .oooOXXooo.XX.                         ",
"                         .ooooXXXoo.oo.                         ",
"                          .ooOXXXO.OO.                          ",
"                          .OoXXXXO.oo.                          ",
"                          .OoOOOOO.OO.                          ",
"                           .ooooO.oo.                           ",
"                            .OOO.OO.                            ",
"                             ......                             ",
"                                                                ",
"                                                                ",
"                                                                ",
"                                                                ",
"                                                                ",
"                                                                ",
"                                                                ",
"                                                                ",
"                                                                ",
"                                                                ",
"                                                                ",
"                                                                ",
"                                                                ",
"                                                                ",
"                                                                ",
"                                                                ",
"                                                                ",
"                                                                ",
"                                                                ",
"                                                                ",
"                                                                ",
"                                                                ",
"                                                                "
};
