/* XPM */
static char *result[] = {
/* columns rows colors chars-per-pixel */
"64 64 6 1 ",
"  c #9BCCEC",
". c #72683E",
"X c #FFF83A",
"o c #E8C831",
"O c #F8D634",
"+ c #DFB500",
/* pixels */
"                                                                ",
"                                                                ",
"                                                                ",
"                                                                ",
"                                                                ",
"                                                                ",
"                                                                ",
"                                                                ",
"                                                                ",
"                                                                ",
"                                                                ",
"                                                                ",
"                                                                ",
"                                                                ",
"                                                                ",
"                                                                ",
"                                                                ",
"                                                                ",
"                                                                ",
"                                                                ",
"                                                                ",
"                                                                ",
"                                                                ",
"                             ......                             ",
"                            .XXX.XX.                            ",
"                           .XoooX.OO.                           ",
"                          .XoOXOoX.XX.                          ",
"                          .XoOXOoX.OO.                          ",
"                          .XoOXOoX.XX.                          ",
"                         .XoXOXOXoX.OO.                         ",
"                         .XoXOXOXoX.XX.                         ",
"                         .ooXXXXXoo.XX.                         ",
"                         .oo+OXO+oo.OO.                         ",
"                         .oooOXOooo.XX.                         ",
"                         .oooOXOooo.OO.                         ",
"                          .ooOXOo+.++.                          ",
"                          .+oOXOo+.OO.                          ",
"                          .+o+++o+.++.                          ",
"                           .oooo+.OO.                           ",
"                            .+++.++.                            ",
"                             ......                             ",
"                                                                ",
"                                                                ",
"                                                                ",
"                                                                ",
"                                                                ",
"                                                                ",
"                                                                ",
"                                                                ",
"                                                                ",
"                                                                ",
"                                                                ",
"                                                                ",
"                                                                ",
"                                                                ",
"                                                                ",
"                                                                ",
"                                                                ",
"                                                                ",
"                                                                ",
"                                                                ",
"                                                                ",
"                                                                ",
"                                                                "
};
