/* XPM */
static char *result[] = {
/* columns rows colors chars-per-pixel */
"64 64 5 1 ",
"  c #9BCCEC",
". c #72683E",
"X c #FFF83A",
"o c #F8D634",
"O c #DFB500",
/* pixels */
"                                                                ",
"                                                                ",
"                                                                ",
"                                                                ",
"                                                                ",
"                                                                ",
"                                                                ",
"                                                                ",
"                                                                ",
"                                                                ",
"                                                                ",
"                                                                ",
"                                                                ",
"                                                                ",
"                                                                ",
"                                                                ",
"                                                                ",
"                                                                ",
"                                                                ",
"                                                                ",
"                                                                ",
"                                                                ",
"                                                                ",
"                             ......                             ",
"                            .XX.XXX.                            ",
"                           .oo.XoooX.                           ",
"                          .XX.XXXXooX.                          ",
"                          .oo.XXXXooX.                          ",
"                          .XX.XXXXooX.                          ",
"                         .oo.XoXXXXooX.                         ",
"                         .XX.XoXXXXooX.                         ",
"                         .XX.ooXXXXooo.                         ",
"                         .oo.ooOXXXooo.                         ",
"                         .XX.oooXXOooo.                         ",
"                         .oo.ooXXXoooo.                         ",
"                          .OO.OXXXOoo.                          ",
"                          .oo.OXXXXoO.                          ",
"                          .OO.OOOOOoO.                          ",
"                           .oo.Ooooo.                           ",
"                            .OO.OOO.                            ",
"                             ......                             ",
"                                                                ",
"                                                                ",
"                                                                ",
"                                                                ",
"                                                                ",
"                                                                ",
"                                                                ",
"                                                                ",
"                                                                ",
"                                                                ",
"                                                                ",
"                                                                ",
"                                                                ",
"                                                                ",
"                                                                ",
"                                                                ",
"                                                                ",
"                                                                ",
"                                                                ",
"                                                                ",
"                                                                ",
"                                                                ",
"                                                                "
};
