/* XPM */
static char *result[] = {
/* columns rows colors chars-per-pixel */
"64 64 6 1 ",
"  c #9BCCEC",
". c #72683E",
"X c #FFF83A",
"o c #F8D634",
"O c #E8C831",
"+ c #DFB500",
/* pixels */
"                                                                ",
"                                                                ",
"                                                                ",
"                                                                ",
"                                                                ",
"                                                                ",
"                                                                ",
"                                                                ",
"                                                                ",
"                                                                ",
"                                                                ",
"                                                                ",
"                                                                ",
"                                                                ",
"                                                                ",
"                                                                ",
"                                                                ",
"                                                                ",
"                                                                ",
"                                                                ",
"                                                                ",
"                                                                ",
"                                                                ",
"                             ......                             ",
"                            .XX.XXX.                            ",
"                           .oo.XOOOX.                           ",
"                          .XX.XOoXoOX.                          ",
"                          .oo.XOoXoOX.                          ",
"                          .XX.XOoXoOX.                          ",
"                         .oo.XOXoXoXOX.                         ",
"                         .XX.XOXoXoXOX.                         ",
"                         .XX.OOXXXXXOO.                         ",
"                         .oo.OO+oXo+OO.                         ",
"                         .XX.OOOoXoOOO.                         ",
"                         .oo.OOOoXoOOO.                         ",
"                          .++.+OoXoOO.                          ",
"                          .oo.+OoXoO+.                          ",
"                          .++.+O+++O+.                          ",
"                           .oo.+OOOO.                           ",
"                            .++.+++.                            ",
"                             ......                             ",
"                                                                ",
"                                                                ",
"                                                                ",
"                                                                ",
"                                                                ",
"                                                                ",
"                                                                ",
"                                                                ",
"                                                                ",
"                                                                ",
"                                                                ",
"                                                                ",
"                                                                ",
"                                                                ",
"                                                                ",
"                                                                ",
"                                                                ",
"                                                                ",
"                                                                ",
"                                                                ",
"                                                                ",
"                                                                ",
"                                                                "
};
