/* XPM */
static char *result[] = {
/* columns rows colors chars-per-pixel */
"64 64 174 2 ",
"   c #191E2C",
".  c #3C1D23",
"X  c #1C222E",
"o  c #2C2226",
"O  c #23232B",
"+  c #282628",
"@  c #322224",
"#  c #3F2122",
"$  c #35262A",
"%  c #3D2A2D",
"&  c #222632",
"*  c #262B36",
"=  c #2A2D35",
"-  c #2A2F38",
";  c #352D36",
":  c #3A2E34",
">  c #372F38",
",  c #2C313A",
"<  c #31353D",
"1  c #3A383E",
"2  c #45261E",
"3  c #47281F",
"4  c #4B2B1D",
"5  c #502F1C",
"6  c #4F301C",
"7  c #4E3A1D",
"8  c #563617",
"9  c #5D3C16",
"0  c #53331A",
"q  c #583719",
"w  c #57391A",
"e  c #5B3C19",
"r  c #603F15",
"t  c #432421",
"y  c #472821",
"u  c #4A2B22",
"i  c #412D2E",
"p  c #4E3122",
"a  c #4C3929",
"s  c #513224",
"d  c #5C3B21",
"f  c #523E24",
"g  c #412F31",
"h  c #453438",
"j  c #463C3D",
"k  c #483A36",
"l  c #50373B",
"z  c #5E4019",
"x  c #654315",
"c  c #684615",
"v  c #674817",
"b  c #6A4815",
"n  c #64441A",
"m  c #69471B",
"M  c #66491A",
"N  c #6D4C1C",
"B  c #714E1A",
"V  c #6F501F",
"C  c #75521C",
"Z  c #79561D",
"A  c #7C591F",
"S  c #57442B",
"D  c #4A413E",
"F  c #5D4630",
"G  c #6A4B28",
"H  c #704F20",
"J  c #745222",
"K  c #785623",
"L  c #7D5B21",
"P  c #6E5339",
"I  c #353A41",
"U  c #3A3D45",
"Y  c #433D43",
"T  c #493D43",
"R  c #3B4046",
"E  c #3F434A",
"W  c #454145",
"Q  c #41444B",
"!  c #4B464A",
"~  c #464B4E",
"^  c #4B4C4F",
"/  c #4E4847",
"(  c #544A42",
")  c #494D52",
"_  c #474B54",
"`  c #534C53",
"'  c #4D5255",
"]  c #4E5159",
"[  c #545B55",
"{  c #52565C",
"}  c #555A5B",
"|  c #595E5A",
" . c #5C5B55",
".. c #5C625C",
"X. c #6C6059",
"o. c #5A5762",
"O. c #5F6466",
"+. c #646A64",
"@. c #6A6D66",
"#. c #65686B",
"$. c #6B6F69",
"%. c #626762",
"&. c #746B67",
"*. c #687067",
"=. c #6D726B",
"-. c #6F796F",
";. c #72746E",
":. c #70796F",
">. c #6A6E71",
",. c #6B7178",
"<. c #757672",
"1. c #727A71",
"2. c #797C76",
"3. c #777A7A",
"4. c #7C7E7B",
"5. c #757475",
"6. c #815E21",
"7. c #856224",
"8. c #896625",
"9. c #8C6927",
"0. c #896728",
"q. c #8B6929",
"w. c #916D2B",
"e. c #9A762E",
"r. c #807E7D",
"t. c #788077",
"y. c #7C817B",
"u. c #81847E",
"i. c #86877C",
"p. c #797B80",
"a. c #768B9A",
"s. c #7E9AAD",
"d. c #848683",
"f. c #868985",
"g. c #8A8B86",
"h. c #8C8E89",
"j. c #8D928B",
"k. c #92938F",
"l. c #8D9498",
"z. c #949692",
"x. c #969895",
"c. c #999A96",
"v. c #9B9C9A",
"b. c #969F9A",
"n. c #A09F9E",
"m. c #9DA19B",
"M. c #A3A29E",
"N. c #839CAA",
"B. c #8FA4AF",
"V. c #88A4BD",
"C. c #A5A4A1",
"Z. c #A5A9A4",
"A. c #ABAAA6",
"S. c #ACACA9",
"D. c #A6A8A8",
"F. c #B2ACAB",
"G. c #B2B2AF",
"H. c #B4B5B1",
"J. c #BDBDBB",
"K. c #B9B8B5",
"L. c #C1C1BE",
"P. c #8BAEC7",
"I. c #8BA7C2",
"U. c #8EB3CB",
"Y. c #92BAD5",
"T. c #90B7D1",
"R. c #A3B8CC",
"E. c #A1BED5",
"W. c #94C0DE",
"Q. c #96C3E1",
"!. c #98C6E4",
"~. c #9BCCEC",
"^. c #99C8E7",
"/. c #CACAC8",
/* pixels */
"~.~.~.~.~.~.~.~.~.~.~.~.~.~.~.~.~.~.~.~.~.~.~.~.~.~.~.~.~.~.~.~.~.~.~.~.~.~.~.~.~.~.~.~.~.~.~.~.~.~.~.~.~.~.~.~.~.~.~.~.~.~.~.~.",
"~.~.~.~.~.~.~.~.~.~.~.~.~.~.~.~.~.~.~.~.~.~.~.~.~.~.~.~.~.~.~.~.~.~.~.~.~.~.~.~.~.~.~.~.~.~.~.~.~.~.~.~.~.~.~.~.~.~.~.~.~.~.~.~.",
"~.~.~.~.~.~.~.~.~.~.~.~.~.~.~.~.~.~.~.~.~.~.~.~.~.~.~.~.~.~.~.~.~.~.~.~.~.~.~.~.~.~.~.~.~.~.~.~.~.~.~.~.~.~.~.~.~.~.~.~.~.~.~.~.",
"~.~.~.~.~.~.~.~.~.~.~.~.~.~.~.~.~.~.~.~.~.~.~.~.~.~.~.~.~.~.~.~.~.~.~.~.~.~.~.~.~.~.~.~.~.~.~.~.~.~.~.~.~.~.~.~.~.~.~.~.~.~.~.~.",
"~.~.~.~.~.~.~.~.~.~.~.~.~.~.~.~.~.~.~.~.~.~.~.^.^.W.P.Y.^.~.~.~.~.~.~.~.~.~.^.~.~.~.~.~.~.~.~.~.~.~.~.~.~.~.~.~.~.~.~.~.~.~.~.~.",
"~.~.~.~.~.~.~.~.~.~.~.~.~.~.~.~.~.~.~.~.~.W.U.B.g.h.n.M.M.A.A.A.A.g.Y W T T Y Q Y.^.~.~.~.~.~.~.~.~.~.~.~.~.~.~.~.~.~.~.~.~.~.~.",
"~.~.~.~.~.~.~.~.~.~.~.~.~.~.~.~.~.W.V.F.S.Z.d.) ' =.@.@.O r.2.2.;.i.1 M.d.x.5.;.5.& { Y ^ E.g.~.~.~.~.~.~.~.~.~.~.~.~.~.~.~.~.~.",
"~.~.~.~.~.~.~.~.~.~.~.~.~.~.~.~.W.K.F.H.A.j.O X k.g.<.& g.f.;.2.2.=.` a.+.%.d.* - h.g.C.h.Y h I.Y.^.~.~.~.~.~.~.~.~.~.~.~.~.~.~.",
"~.~.~.~.~.~.~.~.~.~.~.~.~.~.!.E.K.g.k.f.t.=.& S.<.:.X h.a...=.+.X.O.R m.%.O.;.* h.G.d.d.d.u.;.1 <.i.4.^.~.~.~.~.~.~.~.~.~.~.~.~.",
"~.~.~.~.~.~.~.~.~.~.~.^.g.c.J.>.t.X ;.=.;.f., *.2.2.+.R %.U I U I & I 1.<.[ v.v.u.;.<.;.;.=.- c.;.x.Y ; l.T.~.~.~.~.~.~.~.~.~.~.",
"~.~.~.~.~.~.~.~.~.Q.R.g.F.c.A.y.2.;.[ [ [ -   { #.=.z.M.k.M.] * - S.I - * E j...| 3.2.+.* - p.=.:.2.z.< ; ; P.^.~.~.~.~.~.~.~.~.",
"~.~.~.~.~.~.V.a.C.M.3.f.;.;.=.<.- f.f.:.- 2.2.2.2.< h.h.@.X.+.+.X ] t.;.-.4.y.- < ;., ;.<.y.<...[ =.R j.d.] <.h.N.U.~.~.~.~.~.~.",
"~.~.~.~.~.~.<.z.>.j.' #.;.*.3.Q } $.O...$.=.=.*.;.-.& h.2.1.;.;.X X ~ ..+.:.& x.v.5.;.- ' R 4...;.;._ $.;., >.C.` ; ~.~.~.~.~.~.",
"~.~.~.~.~.~.h.M.u.-.2.~ *.I , ;.d.+.+.=.+.< :.-.:.W O + k S 8 X X 0 8 ! [ ;., X.+.<.Z.X m.4.) [ U v.C.*.<.y.z.c.4.> ~.~.~.~.~.~.",
"~.~.~.~.~.~.~ *.4.2.+.;.j.c.:.:.+., +.;.;.= a 8 2 . 4 # # 2 3 # o 4 # 4 4 4 # 0 / ^ ) & Z.f.3.' <.+.) ~ } L.c.4.;.;.~.~.~.~.~.~.",
"~.~.~.~.~.~.@...y.*...) c.g.1.+.;., X O = 8 0 4 4 2 2 # # 2 2 # 2 3 # 4 4 4 # 4 4 F ( * z.c.3.} { ' #.#.J.M.$.$.<.:.~.~.~.~.~.~.",
"~.~.~.~.~.~.X.- - E U < <.1.;.<.@.* ' a 8 # 5 4 3 2 2 . # 2 2 2 . 4 t t 4 4 # 2 4 4 6 X.C.y.u.< r.J.G.z.R <.;.;.;.:.~.~.~.~.~.~.",
"~.~.~.~.~.~.#.Z.j...2.2.I < < R U 8 4 2 4 # 4 4 3 t 2 2 # 4 4 O O q 8 t 4 5 # 2 4 3 t 3 4 4 # 5 j  .%.- *.t.L.K.G.m.~.~.~.~.~.~.",
"~.~.~.~.~.~.d.h.<.+.;.:.| ' - , < 5 2 # 2 # 6 4 2 2 3 3 # 5 8 + O 8 q y 0 0 # 3 4 4 t 3 4 4 t 4 4 j W +.= ..z.h.y.y.~.~.~.~.~.~.",
"~.~.~.~.~.~.f.=.+.<.;.:.;.+.Y y 5 4 2 2 2 2 4 4 2 t 9 9 2 r 0   X x y y r c # 0 4 4 . 0 4 4 t 3 4 4 &.-.+ a.y.+.-.:.~.~.~.~.~.~.",
"~.~.~.~.~.~.=.<.-.*.-.*.0 4 4 # 4 2 2 2 4 # 0 9 x 2 r r t r 8 X X r 2 # N x # b m 0 . 8 8 3 t d 6 # 2 5 8 -.O.+.*.-.~.~.~.~.~.~.",
"~.~.~.~.~.~.* ..*.:./ p 5 0 3 t 2 4 # 2 0 2 r x b 3 x x t x 8 X X x 2 n x x t x C b . m q 0 t d 6 # # 5 # &.- - R ) ~.~.~.~.~.~.",
"~.~.~.~.~.~.C.] = 8 8 8 5 4 5 t # 5 2 4 m # x e H t 8 t u x 8 X X x r t b x t C b x . L x x t r B # # 0 . 8 8 y.y.Z.~.~.~.~.~.~.",
"~.~.~.~.~.~.<.c.&.9 6 6 4 5 0 t t 8 3 3 0 2 0 J 8 t 8 t 8 x 8 X X x B t b x . A x b . L b b t 8 L . # 0 . 8 e 8 *.-.~.~.~.~.~.~.",
"~.~.~.~.~.~.;.;.B.G 6 0 5 e t t r H u 2 x t 0 J 8 t 8 7.t x 8 X X 8 C t b x . H x 8 . b b x t x L t 9 t . w w 9 *.:.~.~.~.~.~.~.",
"~.~.~.~.~.~.=.<.D 0 6 0 d 8 t . N r 0 8 x . L 8 x t B 7.t B 8 X X 8 u b b b . L 8 8 . 7.8 8 t 8 8.# # y 9 z e 8 *.-.~.~.~.~.~.~.",
"~.~.~.~.~.~.<.;.j 0 4 8 e n 3 . B b e u x # J 8 b # 9.b t m 8 X X 8 u b b b . Z x 8 . b 7.t 2 b 8.. . 2 N z e q =.:.~.~.~.~.~.~.",
"~.~.~.~.~.~.;.<.h 0 0 0 w m 3 t C B s 4 b t K x x # 9.x u 9 8 X 8 8 u x b b . L v 8 . b 8.t t b x # . 2 e M 8 q =.+.~.~.~.~.~.~.",
"~.~.~.~.~.~.1.j.j @ o o   X   X X X X X X X X X X X q C t r X X 8 b y A b 8   X X X X X X X X X X X X X X X , 4.j.E ~.~.~.~.~.~.",
"~.~.~.~.~.~.J.A.j + + o r B G O O X X X X X X X X s q C 2 8 X X 8 b t u x b t X X X X X X X X X X . w.X X X X 3.c.m.~.~.~.~.~.~.",
"~.~.~.~.~.~...1.h 4 8 5 c B C u C 9 3 0 B t x 8 # t b C t 8 X X b b x y 6.9 t m x 8 . 8 b b s b n . x 8 4 z 8 :.+.:.~.~.~.~.~.~.",
"~.~.~.~.~.~.| <.h 4 0 5 c B L u K x 4 b H . x B x t Z x 3 8 x X 8 b n u w.9 t B b 8 . 9 b 8 u b . # x 8 u e 8 1.4.*.~.~.~.~.~.~.",
"~.~.~.~.~.~.[ <.h 4 8 4 x C # s r r 4 c C # c C x t Z x 2 x x X 8 b x u H b t B r r . b b n s m . 4 x c 2 z 8 3.4.*.~.~.~.~.~.~.",
"~.~.~.~.~.~.=...i 4 0 3 r 7.n # r x y x C t B c x . C b 2 b 8 X 8 b 0 t C b t b n r . b 8 c s x . . c c 2 e 8 < X.:.~.~.~.~.~.~.",
"~.~.~.~.~.~., ..i 5 0 0 x 7.K t q x 2 x A t B c x # v b 3 8 8 X 8 b . w.x C . 8.n x . c c c s r B . 8 r 3 n P n., ] ~.~.~.~.~.~.",
"~.~.~.~.~.~._ * @ 4 0 0 r H 9.. q q y c Z # C x x . e u 3 x 8 X 8 b . 8.x B . 7.B c . 8 b 3 s r A . r r t r d C./.K.~.~.~.~.~.~.",
"~.~.~.~.~.~.1.m.i 4 w 0 r 0 7.t 8 x 2 x A u c c b # B # 2 b 8 X X 8 . q.b x t 7.B c . x c u 2 c C . e.r 4 n q d.*.-.~.~.~.~.~.~.",
"~.~.~.~.~.~.-.$.i q 8 8 N 8 8.t q x y c A 4 c c c # B 3 3 b 8 X X 8 . 6.7.x . 0.B c . b c 3 2 r J . e.x 0 m 0 f.*.-.~.~.~.~.~.~.",
"~.~.~.~.~.~.<.+.g 6 0 0 G 8 0.. K r t B 6.3 8 c c # c 3 b x 8 X X 8 . 8.b L 2 8.B c . c c c # c C # e.b t M 8 d.O.1.~.~.~.~.~.~.",
"~.~.~.~.~.~.+.<.g 0 0 0 8 H 0.t L b 4 A x y r c N # x u b x 8 X X 8 b . x b u b B c . 6.q c # A q # e.y b m 8 f...1.~.~.~.~.~.~.",
"~.~.~.~.~.~.*.<.i 8 4 e 0 B K t K b 3 B b t r b N t 8 u b x 8 X X 8 m . 7.c d x N c . Z 8 c t A 0 . e.t t m 8 d.O.R ~.~.~.~.~.~.",
"~.~.~.~.~.~.:.* : 0 6 8 v N K t q b 3 8 C u r b m t J X t b 8 X X 8 5 . X 8 8.b c 8 . c 8 c 3 6.w . e.t # n 8 f.h.-.~.~.~.~.~.~.",
"~.~.~.~.~.~.* , / 4 4 8 m K Z # q x t 8 C 4 r b x t f X O c x X X 8 3 X X 8 8.b b 8 . 8 8 c u H 8 . q.t # z 8 f.f.m.^.~.~.~.~.~.",
"~.~.~.~.~.~.1.J.% 4 0 0 e n 6.# r r 3 q C 3 r x n t + X X X c X X r . X X + x b x c . 8 8 C 4 8 8 . q.t # r 8 f.*.t.~.~.~.~.~.~.",
"~.~.~.~.~.~.@.;.i 4 5 5 e x A t r b 3 9 B 2 9 b x y 8 u y + c X X 8 X t 6.X 8.b x b . b 8 y 4 8 v . L u # z 0 d...-.~.~.~.~.~.~.",
"~.~.~.~.~.~.:.<.j 3 5 2 e b L t r b 2 x N t r x x # + X X c 8 X X 8 X X X X 6.x r b . 6.x u 3 0 n v . p 2 2 8 2.O.t.~.~.~.~.~.~.",
"~.~.~.~.~.~.O.:.p.2 0 2 x x 7.t 9 b 3 b r 4 x b N 2 c x 4 x 8 X X x b u b c 3 x C c t 7.c 6.u n 0 . . y c 9 8 3.*.< ~.~.~.~.~.~.",
"~.~.~.~.~.~.+.;.o.4 8 e x x 6.t x b 3 c x 4 r b C t c 2 u b 8 X X x b u c c 3 8 c C . 8.x 6.3 m v . . y z e 8 1.) - ~.~.~.~.~.~.",
"~.~.~.~.~.~., -.` 4 8 5 r x 7.2 x c 2 x x 0 x r A 3 x t c c 8 X X 8 v u x b y 8 c B . 9.c 7.2 c m . . t x w 8 M.A.v.~.~.~.~.~.~.",
"~.~.~.~.~.~.S.2.$ 3 5 4 x 8 A 2 8 b t x x 6 8 x 7.2 c B 2 v X X X 8 v y x x y b c 8 . 9.c 7.y C b . r y x e 8 <.@.:.~.~.~.~.~.~.",
"~.~.~.~.~.~.[ ;.4 4 5 4 n 0 A 2 w b 2 x 8 8 8 x 7.2 c b 3 c X X 8 8 t y x b t x c 8 # 8 L S y Z m . x X 2 e q 5.@.:.~.~.~.~.~.~.",
"~.~.~.~.~.~.....@ @ @ 4 c x $   O X X X X O X X 7.2 7.C y c X X 8 8 # t 8 b t X X O X X X X X X X . 6.X X X X 5.+.:.~.~.~.~.~.~.",
"~.~.~.~.~.~.....@ @ @ 0 X X X X X X X X X   X X O # L C 2 x X X 8 8 . # z c y X X X X X X X X X X X 6.X X X X 2.-.t.~.~.~.~.~.~.",
"~.~.~.~.~.~...;.@ o @ 0 A x c X X C 2 c M n x v 7.t L y 2 z X O 8 8 . # z x p x 8 # . z L c 4 8 7 . 6.X X 8 X 5.#.1.~.~.~.~.~.~.",
"~.~.~.~.~.~.2...3 4 0 8 A x c N b Z t m M 4 b v K 2 L 2 t z X O 8 x . t z 8 6 8 0 . # x A b 2 8 9 . . 6 u 8 8 5.*.=.~.~.~.~.~.~.",
"~.~.~.~.~.~.=...@ 4 5 6 L 8 c t b b 2 M 8 0 x x V # c b u z X X e n . d e 8 A c 8 . . C x z 2 8 C . J 2 x b 8 3.h.*.~.~.~.~.~.~.",
"~.~.~.~.~.~.O.- i 4 p 3 x K x t c b 3 x e 5 x x 7.. c c t N X X 8 x . s 2 x A x w b . J 8 e # x b . z 2 n x 8 d.h.G.~.~.~.~.~.~.",
"~.~.~.~.~.~.:.<.i 4 0 4 M 6.b t c c 2 b m q x 8.c t 8 4 2 e X X X e q 4 u x A 8 N b . b b M t M M . M t z v x <.=.-.~.~.~.~.~.~.",
"~.~.~.~.~.~.:.<.i 3 0 4 m L b y B c 2 b G q 7.b c # 8 x 3 d X X X e 8 3 t x A 8 H b . b b c 2 c n # z u z M w *.=.:.~.~.~.~.~.~.",
"~.~.~.~.~.~.:.-.% 6 0 0 v L v J b 8 t x 8 5 8.x t 2 8 x 2 G 8 X X 8 b 2 t b b C C b . b b c # b x . v # e v w *.*.:.~.~.~.~.~.~.",
"~.~.~.~.~.~.E - % 0 0 0 x x 6.u b r t x x 9.m c . 2 x b s c 8 X X 8 b . . b . 7.c c . c c c # 7.8 . M # M v 0 Z.x.J.~.~.~.~.~.~.",
"~.~.~.~.~.~.S.H.$ 5 0 q x x b . b 8 3 b x 3 8 c 8 x r x s c c X X 8 b . b b t x 7.b . c b c # c x . x t 2 z 8 m.x.1.~.~.~.~.~.~.",
"~.~.~.~.~.~.-.3.: 4 5 9 x 8 x t x 8 t x x 0 b c x 3 x 7.3 c b X X 8 b . x b 2 x A b # b c c # x c . c t # z 8 3.O.1.~.~.~.~.~.~.",
"~.~.~.~.~.~.:.1.: 8 8 x b 8 8 8 b 8 3 8 8 x x 8 8 t 8 8 4 8 8 8 X 8 8 . 8 8 x 8 8 8 . c c 8 # 8 n . 8 # 2 n 8 1.O.-.~.~.~.~.~.~."
};
