/* XPM */
static char *_93d2a7b76524f78e09f8e75bedb8568LYf2ynsSOvnV9rDe[] = {
/* columns rows colors chars-per-pixel */
"64 64 182 2 ",
"   c #1A1F2C",
".  c #161B29",
"X  c #3C1E23",
"o  c #1C222E",
"O  c #2A2227",
"+  c #23232B",
"@  c #2D2C2A",
"#  c #222024",
"$  c #322224",
"%  c #3F2122",
"&  c #33262B",
"*  c #3D2A2D",
"=  c #37292C",
"-  c #3D3025",
";  c #212631",
":  c #262B36",
">  c #2A2C34",
",  c #2A2F38",
"<  c #352D36",
"1  c #3A2E34",
"2  c #372F38",
"3  c #2C313A",
"4  c #32353D",
"5  c #38363C",
"6  c #45261E",
"7  c #47281E",
"8  c #4B2B1C",
"9  c #502F1C",
"0  c #4F301C",
"q  c #563617",
"w  c #5C3C16",
"e  c #53331A",
"r  c #583719",
"t  c #573919",
"y  c #5B3B19",
"u  c #583817",
"i  c #603F15",
"p  c #422421",
"a  c #472821",
"s  c #4A2B22",
"d  c #412D2E",
"f  c #4F3123",
"g  c #49372A",
"h  c #523323",
"j  c #5A3A22",
"k  c #523E24",
"l  c #412F31",
"z  c #443434",
"x  c #463539",
"c  c #463C3C",
"v  c #4A3D37",
"b  c #50373B",
"n  c #5E4119",
"m  c #654315",
"M  c #684715",
"N  c #674817",
"B  c #6A4815",
"V  c #63441A",
"C  c #69471B",
"Z  c #66481A",
"A  c #6D4C1C",
"S  c #714E1A",
"D  c #6F501F",
"F  c #75521C",
"G  c #79561D",
"H  c #7C591F",
"J  c #56412F",
"K  c #5D4630",
"L  c #694A25",
"P  c #714F20",
"I  c #755321",
"U  c #785723",
"Y  c #7D5B21",
"T  c #6E5339",
"R  c #363A42",
"E  c #3A3D44",
"W  c #443D44",
"Q  c #493C42",
"!  c #3C4246",
"~  c #3F434A",
"^  c #454145",
"/  c #41444B",
"(  c #4A454A",
")  c #464B4E",
"_  c #4B4C4F",
"`  c #4C4444",
"'  c #574B49",
"]  c #574B46",
"[  c #494D52",
"{  c #4A4D56",
"}  c #534C53",
"|  c #4D5255",
" . c #4E5259",
".. c #555C56",
"X. c #52555A",
"o. c #555A5C",
"O. c #595E5A",
"+. c #5A5756",
"@. c #645E59",
"#. c #615954",
"$. c #5C625C",
"%. c #64625D",
"&. c #6C6059",
"*. c #595D62",
"=. c #5F6464",
"-. c #626761",
";. c #646A64",
":. c #6A6C66",
">. c #65686B",
",. c #6B6F69",
"<. c #64646A",
"1. c #746B67",
"2. c #687067",
"3. c #6D726B",
"4. c #6F796F",
"5. c #677067",
"6. c #72746E",
"7. c #70796F",
"8. c #6B6E72",
"9. c #6B7178",
"0. c #757672",
"q. c #727A71",
"w. c #797C76",
"e. c #7B7E7A",
"r. c #767777",
"t. c #815E22",
"y. c #856224",
"u. c #896625",
"i. c #8D6A27",
"p. c #896728",
"a. c #8C6A29",
"s. c #916D2A",
"d. c #95712B",
"f. c #9A762E",
"g. c #7D817C",
"h. c #788077",
"j. c #81847E",
"k. c #86857A",
"l. c #7F8280",
"z. c #7A8A9D",
"x. c #7C95A7",
"c. c #838683",
"v. c #858985",
"b. c #8A8A86",
"n. c #8B8D8A",
"m. c #8D928B",
"M. c #90928E",
"N. c #8D9498",
"B. c #959692",
"V. c #969995",
"C. c #999A95",
"Z. c #9C9D9A",
"A. c #A09E9C",
"S. c #9DA19C",
"D. c #A2A29E",
"F. c #849AA6",
"G. c #8FA4AF",
"H. c #88A4BD",
"J. c #A4A4A1",
"K. c #A6A8A4",
"L. c #ABA9A6",
"P. c #ADADA9",
"I. c #A7A8A7",
"U. c #B3B2AF",
"Y. c #B4B6B2",
"T. c #BDBDBB",
"R. c #B8BBB8",
"E. c #B0ADAA",
"W. c #C1C0BE",
"Q. c #8BADC5",
"!. c #8FB6CF",
"~. c #91BAD5",
"^. c #8FB7D2",
"/. c #A1BED5",
"(. c #94C0DD",
"). c #AAC4D1",
"_. c #96C3E1",
"`. c #9BCBEB",
"'. c #9AC9E8",
"]. c #9BCCEC",
"[. c #99C7E4",
"{. c #C5C4C3",
/* pixels */
"].].].].].].].].].].].].].].].].].].].].].].].].].].].].].].].].].].].].].].].].].].].].].].].].].].].].].].].].].].].].].].].].",
"].].].].].].].].].].].].].].].].].].].].].].].].].].].].].].].].].].].].].].].].].].].].].].].].].].].].].].].].].].].].].].].].",
"].].].].].].].].].].].].].].].].].`.`._.!.F.b.b.b.D.D.J.L.L.L.P.L.b.b.W W W Q W E / (.`.].].].].].].].].].].].].].].].].].].].].",
"].].].].].].].].].].].].].].].].(.x.b.b.Z.Z.A.C.C.w.. k.C.Z.D.P.U.C.6.: L.K.b.6.b.W ^ (  .{ [.`.].].].].].].].].].].].].].].].].",
"].].].].].].].].].].].].].`.(.H.E.P.L.D.j._ | 8.g.2.:.o w.0.e.w.6.v.w.E J.c.V.c.6.6.6.;  .<.^ _ /.b.`.`.].].].].].].].].].].].].",
"].].].].].].].].].].[./.R.A.b.B.v.w.w.3.; P.w.6.6.o b.j.$.$.3.,.-.-.: E Z.-.$.6.6.; n.Y.c.c.c.c.j.6.  5 q.k.e.Q.`.].].].].].].].",
"].].].].].].].`.[.).R.L.8..   4.q.3.6.g.X.B.6.....<.v.$.$.$.$.-.3.:  .V.e...w.q.3 R B.;.:.6.6.e.6.g.: J.5 5 q.q.F._.].].].].].].",
"].].].].].].`.).b.C.T.8.h.o   6.3.6.e.c.3 3.w.w.3 :.~ >.E : 4 E 4 ; =.E 0.0...4 D.Z.e.3.q.:.6.6.3.3 L.C.6.B.W 5 < N.^.].].].].].",
"`._.~.b.B.b.r.n.j.c.6.w.6.[ ..o. .: *.P.n.B.e.E 6.C.3.3.6.w.c.6.R D.b.B.c.c.n.v.: : 6.O.$.3., : K.K.6.q...O.$.E B.g.3 < < ^.].].",
"H.z.z.J.D.r.c.w.6.6.3.q.3 w.v.v.6.3 o.w.e.e.0.4 : b.b.-.;.-.;.-.o  .P.g.6.6.e.e.e.: 4 6.3 3 0.0.j.6.;.$...3.E c.m.c. .6.n.} x.Q.",
"0.B.P.8.m.| >.4.6.,.0./ o.Z.,.-.$.,.3 3.3.3.6.4.4.; n.g.q.q.6.6.o o n.) -.-.6.6.: V.Z.r.6.3.: | E e.q.$.6.6.[ J.3.6.4 8.K.V.} < ",
"b.J.,.j.6.e.) 3.3.R 4 6.v.q.-.-.4.;.-.3 q.q.q.^ 1 + # b J z q o o q q e ( o.6.! 4 -.-.q.I.6.o S.e.[ 6...E Z.D.;.3.0.g.M.C.6.w.2 ",
") 3.-.e.w.:.6.X.m.C.q.4.:.: 3 ;.6.6.6.: v e 8 % 8 9 % % 6 6 7 % $ 8 e p 8 8 8 X p e ` [ ) q.; J.b.r.X.| 0.;.| ! / o.W.C.e.g.6.6.",
":.$.g.g.3.$.[ J.V.v.q.;.6.w.4 o ; > - e 8 8 8 p 6 6 % % 6 6 6 % % 8 8 % 8 8 8 % X 8 8 K ] E : V.V.w.R o.X.| >.e.>.T.D.,.,.g.6.q.",
"$.: , , ~ E 4 D.0.0.q.0.;.o : | g q e % 0 8 8 p 6 6 p % 6 6 6 % $ 8 8 p p 8 8 6 X 6 7 8 f J &.J.g.c.e.R g.T.U.P.V.! w.3.6.e.6.q.",
">.K.n.m.$.w.w.w.R 4 4 ! E ; q 8 6 8 8 % 8 8 8 p 6 6 6 p 8 8 8 + + y e t p 8 8 8 % 6 8 8 % 8 8 8 8 X 8 8 c +.-.3.: 3.g.W.Y.W.Y.S.",
"c.n.:.0.;.0.0.0.O.| , , 4 e 8 6 p 8 8 p 8 8 6 p 6 6 8 p e w e + + y 8 y p e e r % 6 8 8 % 8 8 6 8 p 8 8 8 c ^ ,.;.: ..B.n.v.g.g.",
"c.4.q.-.q.6.6.0.6.;.W 7 e 0 8 6 p 6 8 p 8 8 6 p y y i p m m e o o m q 7 p m C N % e 8 8 % e 8 8 8 p 8 8 8 8 1.:.7.: l.g.:.:.4.4.",
"3.6.$.7.:.q.3.g e 8 8 p 8 8 8 6 6 8 e p e w m 7 S m m p m m q o o m m p p A m m p B A e X y t t 8 p 6 j 8 X 6 8 e q 4.=.:.;.:.4.",
": $.6.:.q.( f p 8 0 8 p p 8 8 6 6 e 8 p m m m p B m m p m m q o o m m p V m m m p B F m X y C y e p 9 j e X p 8 8 p 6.: : R R ) ",
": , 4 -.c e t X 0 8 8 p p 8 8 8 6 V q p m m A p B m p p m q q o o m m m p B m m p m G m X m F i w p y u L X % e e X e q : 3 >.) ",
"0.C.M.1.y 8 0 X 8 e e p p e r 7 7 e w p e I q p q q p q m q q o o m q F p B m % X H m B X B t.m B p B q Y X p e e X t y q w.3.3.",
"6.6.0.G.L 0 e X e y p p V w A 8 7 i y p e I q p q q y.p m q q o o q q F p B m % X P m q X i.B m m p B B Y p w t p X t t y g.,.q.",
"6.0.6.` e e t X y t p p i y.m e e m w X w U m p q q y.p m y q o o q q F 8 B m % X I m q X a.B m q p B B B q p C p X y t q g.,.3.",
"0.6.6.c e 8 t X y V a % A F A y 8 m e % I q m % q i.B p C q q o o q q s B B B C X H m q X I B y.6 p B B p.X X i 6 A n y q e.,.q.",
"0.6.3.z e e t X t C a p F m A h 8 B % p U m m % C i.B a w q q o q q q s m B B S X H B t X t.B p.7 p B B B % X m 6 y Z q q g.,.:.",
"4 4 4 z O O O X V m a o o o o o o o o o o o o % s.q B a m q o o q m q a m B m m p o o o o o o o o o o o o X X m o o o o o ) <.R ",
"q.m.0.c $ O O O + o o o o o o o o o o o o o o o o q F p w q o o q B q p H B q o o o o o o o o o o o o o o o o o o o o 3 e.I.M.~ ",
"$.6.:.x 8 t O X m S F s y F q 8 e G m p m q % a V B F p y q o o B B B m s B m B p B m q X q q m B h B B q X s.B m 8 V q 0.g.-.q.",
"$.0.:.z 8 e e X m S F a F F w 8 e F S p m q % p V B F p q q o o B B q m a y.y B p B m q X q q B B h B B m X m d.q 8 n q q.g.-.q.",
"O.q.@.z 8 t 9 X m F Y a F w m 8 B A S % m F m p V G m 8 q q m o q B q m a s.y B p S B q X q m B q h B B X X m d.q 8 y q q.e.e.3.",
"O.3.%.z 8 e 8 X m y.m p y m m 6 B F m p S B m p V G B 8 B B q o q B m B p F B B p B V i X m B q m f B q X X B d.B 6 y q 0.c.;.5.",
",.$.%.d 8 e 8 X m y.m p y m B p m F B p F B m X A F B 6 B B q o q B m t p F B B p B V m X B B q B h B m X X B f.B 6 y q 4 c.$.q.",
", $.%.d 8 e e % m y.U % t m m p m G X p F B m X A V B 8 q q q o q B B X a.m F B % p.V m X B B B B h B m F X q f.w 6 n T D.3 3 | ",
"T.T.w.d 8 e 8 % i u a.p y y m p B H p p B B m X A A p 8 B q q o B B B X p.B B B X y.F B X B m B f a B m G X f.B m 7 V q 0.g.,.3.",
"7.S.L.d 8 t e % m e y.p t y m p B H m a B B B X B A p p B q q o o q B X p.B m m % y.F B X B B B s p 6 B F X f.B m 8 V q c.g.:.q.",
"7.,.6.d t t t % A q p.p t q m p B H q s B B B % B A 6 8 B q q o o q B X y.y.m m p p.S B X q B B 8 p 8 m F X f.m m e C q c.-.:.q.",
"7.;.0.d e e t % C q p.% U q m p F Y q a t B B X B m s B B t t o o q B X p.B H q p p.F m X Y B B B p m m F X f.m B 6 C q c.%.-.q.",
"2.0.q.l e e t p q A p.p U q B 8 G B I a w B B X B m s B m q q o o q B B X B B 8 s B F m X B H q B % B H q X f.m 8 m C q c.:.O.q.",
"2.0.q.l r 8 r p q S Y p U q B 8 A B U a i B B p B q s B m q q o o q w B X y.B 6 h B A B X q G q B % B H q X f.m p p C q c.:.-.E ",
"4.: 3 1 e 8 t p N A U p y U B 7 q F t.8 i B B p m I o p B m q o o q m e X o q p p.B B q X B B q B 8 B H q X f.m p % V q v.S.n.q.",
": 3 %.( 8 8 t p m U G % q U m 6 q F t.8 m B m p m k o + B m m o o q m 8 o o q p p.B B q X B q q B 8 B I q X a.B p % V q v.0.b.S.",
"7.T.n.* 8 e e p y V y.% w U m 7 q F t.8 m B m p @ + o o o B B o o m m X o o + a B B m B X B q q F 8 H q q X p.B p % V q v.;.:.q.",
":.6.@.d 8 e e p y B Y p m Y B 7 w A h p m B m p @ q 8 7 + q B o o q m o p t.o + p.B m B X q B q a 8 F q m X y.B s p y q v.v.-.q.",
"q.6.#.Q 8 e p p y B Y p m Y B p m A h p m B m p p.+ + + B B q o o q m o o o o p y.m m B X B t.B s 6 F q m Z X m s p p q 0.v.-.q.",
"q.6.#.Q 8 e p 7 y m t.p w Y B 6 B w j 6 q B B p p.m m 8 B B q o o q m B h B m a m t.m B X B y.B H 7 w A m p X m s m p q 0.v.-.:.",
"-.6.' 9.8 e p p m m y.p w U B 7 m i y.8 m B S p p.B m 8 m B q o o m q B f B B S 6 m F B % X y.B t.a m C q X X B p B y q 0.v.:.4 ",
"3 q.' } 8 t e p m m y.p m i B 7 m m h 9 m m H 8 y.m p B B q q o o q m m a B B S 6 q B S X X p.B y.p S B B X X m p m q q A.T.P.C.",
"8.: & & 8 e 0 6 F m H p w i B p m m h e q m t.8 Y m S p B q o o o q m m a B B m a m B q X B p.m t.a C F B X V B p V q q 0.v.:.:.",
"P.0.1 = 8 e 8 s m q H p q i B p m m j e q m y.p Y B S a m q o o o q m B a m m m p B B q X B p.B t.a q F B X i F 8 V y q 0.v.:.q.",
"O.$.= $ $ $ 8 p m m @ o + o o o o o o + o o y.6 q y.S p m q o o q q B % p q B q p o o + o o o o o o o o o X t.o o o o o 0.c.;.q.",
"0.$.& $ $ $ $ + o o o o + o o o o o o o o o o o o y.V a m q o o q q B % p y B o o o o o o o o o o o o o o o o o o o o o 0.l.3.q.",
"$.$.' $ $ $ e + o o + + o o o o o o o o o o + p q t.S p m q o + q q m % % y B p p o o o o o o o o o o o o o t.o o o o o 0.l.7.q.",
"w.$.6.8 8 e t 6 Y m B L B q G p B Z 8 8 m N U p p Y p p n q o + q m B X % n q p f q q X X B m H B p B q w % X q 0 8 q q 0.v.:.4.",
"0.O.0.z 8 e e 6 Y q B p B q G p Z N q 8 N m D 6 p Y p p n q o o y m B X G y q p s m q X X B q H y 6 B q F X X m a m m q 0.: : : ",
"6.$.: & 8 e e p Y q m p B A B p Z q q 0 m m F % a B B a n q o o y m B X j y q p H m q X X B I m y 6 B q F X D B p m m q w.I.n.:.",
"P.P.:.d 7 8 7 6 m Y m p B G B p q V q h m y.m % Y m B p h q o o o y B X y 6 m p H m V B X B Y q y p B m Z X N m p n m q 0.c.,.4.",
"q.0.$.d 8 e 8 6 Z Y B p B G B p m C 8 y m y.m % G q 8 7 j q o o o y B q 8 a m p H q A B X H B B N p B Z Z X N m p V N m 0.c.,.4.",
"q.0.+.* 8 e e 8 Z Y B a A m B p m C h r y.B B % F q m 7 j q o o o y n q 8 p B p H q P B X H B B N p B B m X n m 8 n Z q 3.c.3.q.",
"4.6.@.* 0 e e 6 m m t.8 B m q p m q 7 U S B % p N q B h 8 q q o o q V B % p B B % t.B B X V B B B % m t.q X N m p N N q 6./ 3 ! ",
"~ : > * 0 e e 6 m m Y a B m m p m m 7 i.C B X p y m B h m q q o o q V B X % B B % y.B B X y B B B % B y.q X N N p N N q I.{.V.T.",
"P.U.> & 8 t r 6 m m m % m m q p m m j 8 q B q m p m B h B B m o o y Z B X m B B p m t.B X X B B B % p.B m X m Z p p y q S.{.V.q.",
"q.0.$.1 e e m 7 m q q p m m q p q q q 8 m B m p p Y t.6 q B q o o q B q X m m q 6 m q A X X B B q X p.m m X B q p p n q 6.-.4.4.",
"q.q.-.1 q q m 8 B q q q m m q p q q t m m q q p q q q e q q q q o q q q X q q q m q q q X X B B e X t.q m X q q p p V q 0.-.-.q."
};
