/* XPM */
static char *d91f13cae04d440ae583df51d62799845ynexrRGQnkRXcRZ[] = {
/* columns rows colors chars-per-pixel */
"64 64 204 2 ",
"   c #000000",
".  c #080B0C",
"X  c #140203",
"o  c #0B0E11",
"O  c #13191D",
"+  c #2B090B",
"@  c #161D22",
"#  c #192126",
"$  c #222D34",
"%  c #27333B",
"&  c #7E0A0C",
"*  c #7A1B27",
"=  c #6D1825",
"-  c #45283C",
";  c #552435",
":  c #5E2333",
">  c #63282F",
",  c #2D3B44",
"<  c #5D3F52",
"1  c #6D3E4C",
"2  c #32424D",
"3  c #384A56",
"4  c #3E525E",
"5  c #59485E",
"6  c #694559",
"7  c #7E4151",
"8  c #6E5A47",
"9  c #425765",
"0  c #5C5A6E",
"q  c #5F5970",
"w  c #574A61",
"e  c #4F6778",
"r  c #870000",
"t  c #8B151D",
"y  c #98141A",
"u  c #A10101",
"i  c #BE0F12",
"p  c #A81418",
"a  c #BB1114",
"s  c #B71818",
"d  c #B20101",
"f  c #9F271E",
"g  c #A7241D",
"h  c #B8231C",
"j  c #881923",
"k  c #921A23",
"l  c #A91F22",
"z  c #9D3C3B",
"x  c #9D2823",
"c  c #AA2122",
"v  c #BA2428",
"b  c #B63738",
"n  c #CD0E0F",
"m  c #D30D0D",
"M  c #D70505",
"N  c #D1100F",
"B  c #C30F11",
"V  c #CC0F12",
"C  c #D60F10",
"Z  c #C41413",
"A  c #CC1513",
"S  c #CA1816",
"D  c #C61C19",
"F  c #C91B1A",
"G  c #C71817",
"H  c #D21212",
"J  c #D11B1C",
"K  c #D41716",
"L  c #CF100F",
"P  c #EC0405",
"I  c #EB0A0B",
"U  c #E20606",
"Y  c #E90E10",
"T  c #E61417",
"R  c #C5391E",
"E  c #D0281C",
"W  c #D01D20",
"Q  c #DD1E22",
"!  c #CF2225",
"~  c #CD262A",
"^  c #CC292E",
"/  c #CF2923",
"(  c #C83624",
")  c #D6362D",
"_  c #CA2F34",
"`  c #C73438",
"'  c #D63A35",
"]  c #DC252A",
"[  c #E32526",
"{  c #BD5026",
"}  c #D4473A",
"|  c #C24A3D",
" . c #993C48",
".. c #A93C48",
"X. c #BD3D46",
"o. c #C53C43",
"O. c #C83941",
"+. c #D93A41",
"@. c #984342",
"#. c #8F4E59",
"$. c #B6464C",
"%. c #B84B55",
"&. c #AD535B",
"*. c #AE4C54",
"=. c #8D5667",
"-. c #945567",
";. c #BE5965",
":. c #BC5E6B",
">. c #BE5661",
",. c #8E6578",
"<. c #BC616F",
"1. c #B86C7C",
"2. c #BA6573",
"3. c #A67571",
"4. c #C5434C",
"5. c #D64147",
"6. c #C24A54",
"7. c #C24953",
"8. c #C4515D",
"9. c #DB514E",
"0. c #D4705A",
"q. c #E06350",
"w. c #CA5B69",
"e. c #DF7D64",
"r. c #688E33",
"t. c #AD9939",
"y. c #AAA53D",
"u. c #A2B648",
"i. c #BCBF60",
"p. c #9BA15E",
"a. c #E89275",
"s. c #EAA17F",
"d. c #9BC949",
"f. c #9CD84C",
"g. c #9ADC57",
"h. c #A2C647",
"j. c #99E552",
"k. c #99E459",
"l. c #9AE24F",
"z. c #B8D86A",
"x. c #9BE361",
"c. c #9DE275",
"v. c #A2E378",
"b. c #5C7A8D",
"n. c #597587",
"m. c #727A91",
"M. c #816C82",
"N. c #A47B89",
"B. c #B37A8C",
"V. c #B67485",
"C. c #A87F91",
"Z. c #C07385",
"A. c #728599",
"S. c #6B8DA3",
"D. c #6E91A8",
"F. c #7696AD",
"G. c #7B98B2",
"H. c #778AA5",
"J. c #7BA2BB",
"K. c #97869A",
"L. c #8D8698",
"P. c #AF879B",
"I. c #B1869A",
"U. c #9797AB",
"Y. c #8C90A9",
"T. c #AE8DA2",
"R. c #A28BA1",
"E. c #AB96AD",
"W. c #B294AB",
"Q. c #A79DB5",
"!. c #A89CB3",
"~. c #98A4BE",
"^. c #8EA4BF",
"/. c #A6A1B9",
"(. c #A7A1B9",
"). c #CAA683",
"_. c #E8AB88",
"`. c #ECB48E",
"'. c #ECBC95",
"]. c #E9BF9B",
"[. c #9FE084",
"{. c #A6E290",
"}. c #EDC39B",
"|. c #DBC5AB",
" X c #E4C2A3",
".X c #83A7C3",
"XX c #98ADC8",
"oX c #8CB8D5",
"OX c #92BEDB",
"+X c #9EBFDC",
"@X c #9CB9D4",
"#X c #93B2CD",
"$X c #A6AAC4",
"%X c #A5ABC5",
"&X c #A3B3CE",
"*X c #A2B6D2",
"=X c #A1B9D6",
"-X c #A0BDDB",
";X c #9EC0DE",
":X c #98C7DB",
">X c #95C4E3",
",X c #9DC5E4",
"<X c #99C8E7",
"1X c #9BCCEC",
/* pixels */
"1X1X1X1X1X1X1X1X1X1X1X1X1X1X1X1X1X1X1X1X1X1X1X1X1X1X1X1X1X1X1X1X1X1X1X1X1X1X1X1X1X1X1X1X1X1X1X1X1X1X1X1X1X1X1X1X1X1X1X1X1X1X1X1X",
"1X1X1X1X1X1X1X1X1X1X1X1X1X1X1X1X1X1X1X1X1X1X1X1X1X1X1X1X1X1X1X1X1X1X1X1X1X1X1X1X1X1X1X1X1X1X1X1X1X1X1X1X1X1X1X1X1X1X1X1X1X1X1X1X",
"1X1X1X1X1X1X1X1X1X1X1X1X1X1X1X1X1X1X1X1X1X1X1X1X1X1X1X1X1X1X1X1X1X1X1X1X1X1X1X1X1X1X1X1X1X1X1X1X1X1X1X1X1X1X1X1X1X1X1X1X1X1X1X1X",
"1X1X1X1X1X1X1X1X1X1X1X1X1X1X1X1X1X1X1X1X1X1X1X1X1X1X1X1X1X1X1X1X1X1X1X1X1X1X1X1X1X1X1X1X1X1X1X1X1X1X1X1X1X1X1X1X1X1X1X1X1X1X1X1X",
"1X1X1X1X1X1X1X1X1X1X1X1X1X1X1X1X1X1X1X1X1X1X1X1X1X1X1X1X1X1X1X1X1X1X1X1X1X1X1X1X1X1X1X1X1X1X1X1X1X1X1X1X1X1X1X1X1X1X1X1X1X1X1X1X",
"1X1X1X1X1X1X1X1X1X1X1X*X$X&X1X1X1X1X1X1X1X1X1X1X1X1X1X1X1X1X1X1X1X1X1X1X*X$X<X1X1X1X1X1X1X1X1X1X1X1X1X1X1X1X1X1X1X1X1X1X1X1X1X1X",
"1X1X1X1X1X1X1X1X1X1X1XP.2.B.1X1X1X1X1X1X1X1X1X1X1X1X1X1X1X1X1X1X1X1X1X<XB.>.=X<X1X1X1X1X1X1X1X1X1X1X1X1X1X1X1X1X1X1X1X1X1X1X1X1X",
"1X1X1X1X1X1X1X1X1X1X1X7._ V.1X1X1X1X1X1X1X1X1X1X1X1X1X1X1X1X1X1X1X1X1X%X:.o.T.,X1X1X1X1X1X1X1X1X1X1X1X1X1X1X1X1X1X1X1X1X1X1X1X1X",
"1X1X1X1X1X1X1X1X1X1X1X4.^ 1.1X1X1X1X1X1X1X1X1X1X1X1X1X1X1X1X1X1X1X1X1XB.` _ V.;X1X1X1X1X1X1X1X1X1X1X1X1X1X1X1X1X1X1X1X1X1X1X1X1X",
"1X1X1X1X1X1X1X1X1X1X,X7.~ <.1X1X1X1X1X1X1X1X1X1X1X1X1X1X1X1X1X1X1X1X1X:.! ^ 1.+X1X1X1X1X1X1X1X1X1X1X1X1X1X1X1X1X1X1X1X1X1X1X1X1X",
"1X1X1X1X1X1X1X1X1X,X$X4.J >.1X1X1X1X1X1X1X1X1X1X1X1X1X1X1X1X1X1X1X1X1X;.W ^ 1.;X1X1X1X1X1X1X1X1X1X1X1X1X1X1X1X1X1X1X1X1X1X1X1X1X",
"1X1X1X1X1X1X1X1X1X-X1.^ K 6.,X1X1X1X1X1X1X1X1X1X1X1X1X1X1X1X1X1X1X1X1X;.W ^ 1.;X1X1X1X1X1X1X1X1X1X1X1X1X1X1X1X1X1X1X1X1X1X1X1X1X",
"1X1X1X1X1X1X1X1X1X*X4.J C o.Q.,X1X1X1X1X1X1X1X1X1X1X1X1X1X1X1X1X1X1X1X8.J ^ 1.;X1X1X1X1X1X1X1X1X1X1X1X1X1X1X1X1X1X1X1X1X1X1X1X1X",
"1X1X1X1X1X1X1X1X1X*X6.J m ! :.;X1X1X1X1X1X1X1X1X1X1X1X1X1X1X1X1X1X1X<X7.K _ V.,X1X1X1X1X1X1X1X1X1X1X1X1X1X1X1X1X1X1X1X1X1X1X1X1X",
"1X1X1X1X1X1X1X1X1X-X1.~ m K ` T.-X1X1X1X1X1X1X1X1X1X1X1X1X1X1X1X1X,X(.O.K o.T.,X1X1X1X1X1X1X1X1X1X1X1X1X1X1X1X1X1X1X1X1X1X1X1X1X",
"1X1X1X1X1X1X1X1X1X,XE.` H H ! 6.I.!.!.!.!.!.Q.Q.Q.Q.Q.(.(././././.E.:.~ K 7.%X<X1X1X1X1X1X1X1X1X1X1X1X1X1X1X1X1Xb.    D.1X1X1X1X",
"1X1X1X1X1X1X1X1X1X<X*X4.K H W ! F S S S S S S S S S S S S S S S G D K K K 8.1X1X1X1X1X1X1X1X1X1X1X1X1X1X1X1X1X.         .X1X1X1X",
"1X1X1X1X1X1X1X1X1X1X,X;.! H J ~ F S S S S S S S S S S S S S S A N A W J ! :.1X1X1X1X1X1X1X1X1X1X1X1X1X1X1X1X2     1     , 1X1X1X",
"1X1X1X1X1X1X1X1X1X1X1XT.o.H H K A A A S S S S D D D D D D S S H N H K K 6.E.1X1X1X1X1X1X1X1X1X1X1X1X1X1X1X1X    T P ,   $ 1X1X1X",
"1X1X1X1X1X1X1X1X1X1X1X*X1.^ m m H A A S S S S S S S S S S S S A H N m N 2.=X1X1X1X1X1X1X1X1X1X1X1X1XS.9 >X1X    $ 4     S.1X1X1X",
"1X1X1X1X1X1X1X1X1X1X1XXXB.o.N m H H J ) ' ' ) ) ) ) ( R R R { ( E K m N >.!.&X1X1X1X1X1X1X1X1X1X.X        1X9         e 1X1X1X1X",
"1X1X1X1X1X1X1X1X1X1X1X&.h S A A H N ) a.'.'.`._._._.z.h.h.d.f.h.t.{ H H S v $.+X<X<X1X1X1X1X1XOX        o , n.2     A.1X1X1X1X1X",
"1X1X1X1X1X1X1X1X1X1X1X$.D A S S A A } `.}. X X].'.'.z.f.f.g.k.f.d.y.S A H A _ =X1X1X1X1X1X1X1XO   # n.        b.@ oX1X1X1X1X1X1X",
"1X1X1X1X1X1X1X1X1X1X1X$.S ) 0.e.( Z } '. X9.T [ }.}.z.k.c.0.) v.l.u.D A A H ^ =XOX>X1X1X1X1X1X    b.    %     o .X1X1X1X1X1X1X1X",
"1X1X1X1X1X1X1X1X1X1X1X$.S ' a.s.' Z } '. X[ P I }.}.z.k.[.T I {.j.d.h Z A A _ -XoXOX1X1X1X1X1X  . oX. 9 e     b.1X1X1X1X1X1X1X1X",
"1X1X1X1X1X1X1X1X1X1X1X$.S E } q./ A } _. X+.I 5.}.}.z.k.c.[ T {.j.d.h A A G b +XoXOX1X1X1X1X1XD.1X1Xb.2     , 1X1X1X1X1X1X1X1X1X",
"1X1X1X1X1X1X1X1X1X1X1X*.Z m N H m N ' s.].|.|.|.}.}.z.j.k.x.x.k.j.d.h A n a z +X1X1X1X1X1X1X1X1X1X:X      , 1X1X1X1X1X1X1X1X1X1X",
"1X1X1X1X1X1X1X1X1X1X1X#.x s Z A N m ) a.'.}.}.}.}.}.z.j.j.j.j.j.l.u.s V Z g @.;X1X1X1X<XJ.      G.3     $ 1X1X1X1X1X1X1X1X1X1X1X",
"1X1X1X1X1X1X1X1X1X1X1XU.K.&.Z A N m ' _.}.}.}.).8 8 u.j.j.j.j.j.f.y.S A %.N.K.<X1X1X1Xb.          # . J.1X1X1X1X1X1X1X1X1X1X1X1X",
"1X1X1X1X1X1X1X1X1X1X1X1X;XC.s a A A } '.}.}.}.p.    r.j.j.j.j.j.f.y.Z s C.<X1X1X1X1X<X    C T     O .X1X1X1X1X1X1X1X1X1X1X1X1X1X",
"1X1X1X1X1X1X1X1X1X1X1X1X,XU.@.@.c s | _._._._.3.X X r.d.d.d.d.g.g.u.b z K.1X1X1X1X1XD.    Y +.    S.1X1X1X1X1X1X1X1X1X1X1X1X1X1X",
"1X1X1X1X1X1X1X1X1Xw.1X1X1X<X,X+X7 t p l c c c p y y y g g f > L.:X:X@X@X,X1X1X1X1X1X.X    O       1X1X1X1X1X1X1X1X1X1X1X1X1X1X1X",
"1X1X1X1X1X1X1X1X1X' -X,X<X1X<X-X..a B i i B B B B B B i B B t K.1X1X1X1X1X1X1X.X  . b.%         >X1X1X1X1X1X1X1X1X1X1X1X1X1X1X1X",
"1X1X1X1X1X1X1XW.Z.5.+.<X<XXXM.,.v B n n n m m m m m m n n n p =.m.H.1XF.  J.<X        3 9 % e 1X1X1X1X1X1X1X1X1X1X1X1X1X1X1X1X1X",
"1X1X1X1X1X1X1Xw.Y P ' 8.<XK.t y i n n m m m m m m m m m n n p t = < 1X      b.          >X1X1X1X1X1X1X1X1X1X1X1X1X1X1X1X1X1X1X1X",
"1X1X1X1X1X1X1X1X-XI P Y [ ;.B m m m m m m m m m m m m m m m n n s  .1XG.        T Q     G.1X1X1X1X1X1X1X1X1X1X1X1X1X1X1X1X1X1X1X",
"1X1X1X1X1X1X1X1X1X,X+.P Y I P M m m m m m m m m m m m m m m m m V b ,X1X9       C V     1X1X1X1X1X1X1X1X1X1X1X1X1X1X1X1X1X1X1X1X",
"1X1X1X1X1X1X1X1X1X1X1Xw.P ] P U m m m m m m m m m m m m m m m m n ` F.d             # F.1X1X1X1X1X1X1X1X1X1X1X1X1X1X1X1X1X1X1X1X",
"1X1X1X1X1X1X1X1X1X1X1X1XW.Q P U m m m m m m m m m m m m m m m m B T u M r   @     . 1X1X1X1X1X1X1X1X1X1X1X1X1X1X1X1X1X1X1X1X1X1X",
"1X1X1X1X1X1X1X1X1X1X1X1X1XK.p m m m m m m m m m m m m m m m m m i + + r u @ 1XJ.  oX1X1X1X1X1X1X1X1X1X1X1X1X1X1X1X1X1X1X1X1X1X1X",
"1X1X1X1X1X1X1X1X1X1X1X1X1XK.p m m m m m m m m m m m m m m m m m &   O 0 A.<X1X1X1X1X1X1X1X1X1X1X1X1X1X1X1X1X1X1X1X1X1X1X1X1X1X1X",
"1X1X1X1X1X1X1X1X1X1X1X1X1XK.p m m m m m m m m m m m m m m m m m a  .1XOXOX<X1X1X1X1X1X1X1X1X1X1X1X1X1X1X1X1X1X1X1X1X1X1X1X1X1X1X",
"1X1X1X1X1X1X1X1X1X1X1X1X1XL.t p B m m m m m m m m m m m n m n B y 7 1X<XoXOX1X1X1X1X1X1X1X1X1X1X1X1X1X1X1X1X1X1X1X1X1X1X1X1X1X1X",
"1X1X1X1X1X1X1X1X1X1X1X1X1X^.,.,.v n m m m m m m m m m n n m B ..=.m.1X1XOXOX1X1X1X1X1X1X1X1X1X1X1X1X1X1X1X1X1X1X1X1X1X1X1X1X1X1X",
"1X1X1X1X1X1X1X1X1X1X1X1X1X1X1X1X..a B B B B B B B B B B n n a R.1X1X1X1X1X1X1X1X1X1X1X1X1X1X1X1X1X1X1X1X1X1X1X1X1X1X1X1X1X1X1X1X",
"1X1X1X1X1X1X1X1X1X1X1X1X1X1X1X1X6 * y y y p y y t j j y s B t Y.1X1X1X1X1X1X1X1X1X1X1X1X1X1X1X1X1X1X1X1X1X1X1X1X1X1X1X1X1X1X1X1X",
"1X1X1X1X1X1X1X1X1X1X1X1X1X1X1X1X5 ; ; ; ; L.~.~.~.~.6 ; : : ; Y.1X1X1X1X1X1X1X1X1X1X1X1X1X1X1X1X1X1X1X1X1X1X1X1X1X1X1X1X1X1X1X1X",
"1X1X1X1X1X1X1X1X1X1X1X1X1X1X1X1Xw - - - - .X1X1X1X1Xq - - - - G.1X1X1X1X1X1X1X1X1X1X1X1X1X1X1X1X1X1X1X1X1X1X1X1X1X1X1X1X1X1X1X1X",
"1X1X1X1X1X1X1X1X1X1X1X1X1X1X1X1Xw - - - - .X1X1X1X1Xq - - - - G.1X1X1X1X1X1X1X1X1X1X1X1X1X1X1X1X1X1X1X1X1X1X1X1X1X1X1X1X1X1X1X1X",
"1X1X1X1X1X1X1X1X1X1X1X1X1X<X,X,X5 - - - - .X1X1X1X1Xq - - - - G.1X1X1X1X1X1X1X1X1X1X1X1X1X1X1X1X1X1X1X1X1X1X1X1X1X1X1X1X1X1X1X1X",
"1X1X1X1X1X1X1X1X1X1X1X1X1X+X$XQ.< - - - - .X1X1X1X1Xq - - - - G.1X1X1X1X1X1X1X1X1X1X1X1X1X1X1X1X1X1X1X1X1X1X1X1X1X1X1X1X1X1X1X1X",
"1X1X1X1X1X1X1X1X1X1X1X1X*XB.O._ s p y k * ^.1X1X1X,X#.j k k k $.<.I.,X1X1X1X1X1X1X1X1X1X1X1X1X1X1X1X1X1X1X1X1X1X1X1X1X1X1X1X1X1X",
"1X1X1X1X1X1X1X1X1X1X1X1X&X1.W m m Z a s k ~.1X1X1X;X#.p a a Z S ~ ;.+X<X1X1X1X1X1X1X1X1X1X1X1X1X1X1X1X1X1X1X1X1X1X1X1X1X1X1X1X1X",
"1X1X1X1X1X1X1X1X1X1X1X1X-XT.:.8.%.%.&.&.-.XX1X1X1X,X3.$.X.o.` ` o.1.+X<X1X1X1X1X1X1X1X1X1X1X1X1X1X1X1X1X1X1X1X1X1X1X1X1X1X1X1X1X",
"1X1X1X1X1X1X1X1X1X1X1X1X1X1X1X1X1X1X1X1X1X1X1X1X1X1X,X*X$XQ.T.P.E.&X1X1X1X1X1X1X1X1X1X1X1X1X1X1X1X1X1X1X1X1X1X1X1X1X1X1X1X1X1X1X",
"1X1X1X1X1X1X1X1X1X1X1X1X1X1X1X1X1X1X1X1X1X1X1X1X1X1X1X<X,X,X,X,X,X<X1X1X1X1X1X1X1X1X1X1X1X1X1X1X1X1X1X1X1X1X1X1X1X1X1X1X1X1X1X1X",
"1X1X1X1X1X1X1X1X1X1X1X1X1X1X1X1X1X1X1X1X1X1X1X1X1X1X1X1X1X1X1X1X1X1X1X1X1X1X1X1X1X1X1X1X1X1X1X1X1X1X1X1X1X1X1X1X1X1X1X1X1X1X1X1X",
"1X1X1X1X1X1X1X1X1X1X1X1X1X1X1X1X1X1X1X1X1X1X1X1X1X1X1X1X1X1X1X1X1X1X1X1X1X1X1X1X1X1X1X1X1X1X1X1X1X1X1X1X1X1X1X1X1X1X1X1X1X1X1X1X",
"1X1X1X1X1X1X1X1X1X1X1X1X1X1X1X1X1X1X1X1X1X1X1X1X1X1X1X1X1X1X1X1X1X1X1X1X1X1X1X1X1X1X1X1X1X1X1X1X1X1X1X1X1X1X1X1X1X1X1X1X1X1X1X1X",
"1X1X1X1X1X1X1X1X1X1X1X1X1X1X1X1X1X1X1X1X1X1X1X1X1X1X1X1X1X1X1X1X1X1X1X1X1X1X1X1X1X1X1X1X1X1X1X1X1X1X1X1X1X1X1X1X1X1X1X1X1X1X1X1X",
"1X1X1X1X1X1X1X1X1X1X1X1X1X1X1X1X1X1X1X1X1X1X1X1X1X1X1X1X1X1X1X1X1X1X1X1X1X1X1X1X1X1X1X1X1X1X1X1X1X1X1X1X1X1X1X1X1X1X1X1X1X1X1X1X",
"1X1X1X1X1X1X1X1X1X1X1X1X1X1X1X1X1X1X1X1X1X1X1X1X1X1X1X1X1X1X1X1X1X1X1X1X1X1X1X1X1X1X1X1X1X1X1X1X1X1X1X1X1X1X1X1X1X1X1X1X1X1X1X1X",
"1X1X1X1X1X1X1X1X1X1X1X1X1X1X1X1X1X1X1X1X1X1X1X1X1X1X1X1X1X1X1X1X1X1X1X1X1X1X1X1X1X1X1X1X1X1X1X1X1X1X1X1X1X1X1X1X1X1X1X1X1X1X1X1X",
"1X1X1X1X1X1X1X1X1X1X1X1X1X1X1X1X1X1X1X1X1X1X1X1X1X1X1X1X1X1X1X1X1X1X1X1X1X1X1X1X1X1X1X1X1X1X1X1X1X1X1X1X1X1X1X1X1X1X1X1X1X1X1X1X"
};
