/* XPM */
static char *result[] = {
/* columns rows colors chars-per-pixel */
"64 64 220 2 ",
"   c #0D0000",
".  c #130000",
"X  c #1C0000",
"o  c #280000",
"O  c #360000",
"+  c #480000",
"@  c #5B0000",
"#  c #530000",
"$  c #680000",
"%  c #7B0000",
"&  c #3A3C5E",
"*  c #2B3A64",
"=  c #2B3D6C",
"-  c #273B68",
";  c #343B64",
":  c #363C67",
">  c #473C5B",
",  c #5B3650",
"<  c #773E57",
"1  c #423E68",
"2  c #2A416D",
"3  c #35436C",
"4  c #2D4271",
"5  c #334573",
"6  c #364B7B",
"7  c #3A4B77",
"8  c #35517E",
"9  c #4A425E",
"0  c #56445D",
"q  c #75425D",
"w  c #484767",
"e  c #564966",
"r  c #474E75",
"t  c #49547B",
"y  c #575578",
"u  c #67556C",
"i  c #7B566D",
"p  c #685976",
"a  c #775B74",
"s  c #6C4A66",
"d  c #576676",
"f  c #4F6070",
"g  c #676979",
"h  c #77667B",
"j  c #860000",
"k  c #9D0000",
"l  c #A20000",
"z  c #AE0000",
"x  c #BB0000",
"c  c #BD1A28",
"v  c #B42734",
"b  c #952235",
"n  c #C80000",
"m  c #D70000",
"M  c #CD111B",
"N  c #DA131B",
"B  c #D70E17",
"V  c #E80507",
"C  c #F50304",
"Z  c #FF0000",
"A  c #F30609",
"S  c #F90708",
"D  c #F50A0C",
"F  c #F9090A",
"G  c #EB0D11",
"H  c #F20E10",
"J  c #EC1215",
"K  c #EB161A",
"L  c #E8171B",
"P  c #F11215",
"I  c #C81C26",
"U  c #D71B24",
"Y  c #E51D22",
"T  c #D9262C",
"R  c #CA2A33",
"E  c #D72A33",
"W  c #CA333C",
"Q  c #D22E37",
"!  c #E32A31",
"~  c #842B42",
"^  c #933A52",
"/  c #B23548",
"(  c #C63C47",
")  c #D83A45",
"_  c #B94B57",
"`  c #AA525E",
"'  c #AF4757",
"]  c #9A5C6B",
"[  c #855A76",
"{  c #905269",
"}  c #A95765",
"|  c #B75866",
" . c #AD4F66",
".. c #87667A",
"X. c #976878",
"o. c #9A616F",
"O. c #A8616E",
"+. c #A7677A",
"@. c #B76776",
"#. c #9E4D58",
"$. c #C44854",
"%. c #D24550",
"&. c #C85966",
"*. c #CC6575",
"=. c #3C5483",
"-. c #3C5886",
";. c #445B88",
":. c #555C82",
">. c #675D82",
",. c #4C638C",
"<. c #58668A",
"1. c #5D7487",
"2. c #4B6694",
"3. c #556D98",
"4. c #57739C",
"5. c #686588",
"6. c #766985",
"7. c #69798C",
"8. c #787589",
"9. c #666A95",
"0. c #746C96",
"q. c #677896",
"w. c #797896",
"e. c #5A79A5",
"r. c #647DA4",
"t. c #856A87",
"y. c #976885",
"u. c #8C7A8D",
"i. c #877589",
"p. c #9C7385",
"a. c #94758B",
"s. c #9A748B",
"d. c #927A8D",
"f. c #9C7A8C",
"g. c #957183",
"h. c #887995",
"j. c #947591",
"k. c #9B7E91",
"l. c #957D94",
"z. c #816F91",
"x. c #A37384",
"c. c #A7768A",
"v. c #B5788A",
"b. c #A77D91",
"n. c #A9758C",
"m. c #C07D91",
"M. c #6A859A",
"N. c #778599",
"B. c #5D80A9",
"V. c #6A88A7",
"C. c #778BA6",
"Z. c #7294AB",
"A. c #7B95AB",
"S. c #7896AC",
"D. c #6A8BB2",
"F. c #6D91B6",
"G. c #769BB2",
"H. c #7A9CB4",
"J. c #7897B8",
"K. c #738FAA",
"L. c #7CA2BC",
"P. c #799EC1",
"I. c #7EA5C2",
"U. c #8C859A",
"Y. c #8C8A9E",
"T. c #858498",
"R. c #938295",
"E. c #9A8194",
"W. c #94849A",
"Q. c #97879B",
"!. c #A8869A",
"~. c #B78498",
"^. c #848CA3",
"/. c #8A8AA4",
"(. c #948CA3",
"). c #998CA4",
"_. c #8493AB",
"`. c #8893AA",
"'. c #9394AB",
"]. c #9892A8",
"[. c #869BB5",
"{. c #939BB4",
"}. c #979BB5",
"|. c #A68DA3",
" X c #A694AB",
".X c #AE97AD",
"XX c #89A2BC",
"oX c #93A3BD",
"OX c #A6A2BB",
"+X c #B0A3BB",
"@X c #83A5C3",
"#X c #82AAC4",
"$X c #85ADCA",
"%X c #8BAECA",
"&X c #8BA9C3",
"*X c #95AAC5",
"=X c #87B1CD",
"-X c #89B2CE",
";X c #93B2CE",
":X c #9DB2CC",
">X c #8BB5D2",
",X c #8EB9D6",
"<X c #8EBBD9",
"1X c #8DB6D8",
"2X c #93B6D3",
"3X c #93BAD6",
"4X c #92BDDB",
"5X c #9BBBD8",
"6X c #89AFD0",
"7X c #A6ABC5",
"8X c #A3BAD6",
"9X c #A4B2CC",
"0X c #93C1DE",
"qX c #9AC1DE",
"wX c #96C4E3",
"eX c #99C5E5",
"rX c #99C8E7",
"tX c #9BCBEB",
"yX c #99C7E8",
"uX c #A2C0DC",
/* pixels */
"tXtXtXtXtXtXtXtXtXtXtXtXtXtXtXtXeXwX1X2X%XXX[.h.h.z.t.a [ i i a a 6.8.w.^.C.@X@X6X1X1XyXyXyXyXtXtXtXtXtXtXtXtXtXtXtXtXtXtXtXtXtX",
"tXtXtXtXtXtXtXtXtXtXtXtXtXtXtXtXeX4X1X2X;X[.[./.h.h.6...i i i a a 6.0.w.C.J.[.@X6X1X1XyXwXyXyXyXtXyXtXtXtXtXtXtXtXtXtXtXtXtXtXtX",
"tXtXtXtXtXtXtXtXtXtXtXtXtXtXtXeXqX4X1X6X&X[._.^.w.8.6.a a p i p >.5.0.q.r.[.P.P.I.1X1X4X0XwXyXyXyXyXtXtXtXtXtXtXtXtXtXtXtXtXtXtX",
"tXtXtXtXtXtXtXtXtXtXtXtXyXeXeXqX4X1X6X$X@X_.F.h.w.0.6.a p p u p p >.5.9.0.r.r.P.P.6X6X1X1X0X0X0X0X0XyXyXtXtXtXtXtXtXtXtXtXtXtXtX",
"tXtXtXtXtXtXtXtXtXtXtXyXeXwXqX1X1X6X6X@X[._.w.r.0.5.5.p p y u y :.>.9.9.r.r.r.P.P.P.6X6X>X1X2X,X1X1X,X4XwXtXtXtXtXtXtXtXtXtXtXtX",
"tXtXtXtXtXtXtXtXrXyXeXeXeXqX4X1X6X6XI.P.P.F.D.0.7.5.<.y y y r y r ;.:.2.e.e.r.D.F.P.P.@X@X%X%X%X@X{.b.OX4XwXtXtXtXtXtXtXtXtXtXtX",
"tXtXtXtXtXtXtXtXeXeXeXeX0X1X1X6X6XI.P.J.D.r.e.9.<.<.:.t r r r r r ;.;.;.2.e.e.e.D.F.P.[.XXXX[.[.[. .S E %X3XwXeXtXtXtXtXtXtXtXtX",
"tXtXtXtXtXtXrXeXeX~.) ~.1X1X6X6XP.P.J.F.V.r.e.3.,.:.t t r r r 7 7 r =.;.;.2.2.e.r.r.D.K._.J.`.`./.E Z Y [.&X-X3XtXtXtXtXtXtXtXtX",
"tXyXyXyXeXeXqXqX5X) S ! ;X6X$XP.P.P.D.D.B.e.2.2.;.;.r ;.;.7 : 6 : =.: =.-.,.2.3.4.M.V.N.C./.Y.T.T.T Z L Y.`.[.XX>X<XwXtXtXtXtXtX",
"yXyXeXqX5X5X1X5X5X%.S D |.$X@XP.P.F.B.e.e.2.2.2.;.;.6 =.: = 6 = = 6 = =.8 8 -.,.2.4.q.q.w.T.h.u...Y Z L R.T.T.A.H.$X4XyXtXtXtXtX",
"yXqXqX5X1X2X6X*X*X( F F ) XXP.P.D.B.e.e.e.2.2.-.;.: 5 = = = = = = = = =.6 8 8 -.,.<.9.8.8.i.u.X.X.H Z L o.....N.N.[.,XwXtXtXtXtX",
"qXqX1X5X6X*X*X&X*X%.F P D  .F.r.D.B.e.3.2.2.-.=.=.=.=.5 5 = - - 2 2 - = 4 7 8 f t y 5.6.6.i.X.X._ F S L o.o.....i.^.%XwXtXtXtXtX",
"1X1X2X*X6XoXoX}.oX| D ! P H  .r.e.e.3.2.2.;.;.;.= =.= = = = - - - - - - - 3 7 w t y y h h ..X.X.T S S H } ] ] o.g.Y.&XqXtXtXtXtX",
"5X:X:X*XoX}.}.}.'.j.P K  .J D / e.2.2.2.;.;.6 6 =.= 5 = = = - - - - * * 2 3 3 3 w f u h [ ..X.} P D P D _ ` ` o.g.(.*XqXeXtXtXtX",
":X*XoXoX}.'.'.'././.) A ( { K D R >.2.;.=.=.6 6 6 5 = = = * - - - - - * * * & w w e u p a [ o.T S Y P D $.| | O.x.|.*X5XyXtXtXtX",
"*XoXoX}.}.'.)./.'.h.y.G G [ y.N H N ^ =.;.6 7 6 = 5 = = = = * * - - * * & & & 3 w e u u a [ _ C H | K D $.| | @.c. X*XqXwXtXtXtX",
"}.}.}.'.).(.).l./.h.0./ P E 9.>.R G G b ;.r 5 1 : : : = = = * ; * ; * & & & & 9 w e u s i ( D D $.+.K D &.| @.@.v..X*XqXyXtXtXtX",
"'.{.'.).).l.l.l.j.)./.z.L P ^ 2.:.^ G D I 1 1 5 : : : : : : : : ; & & & & & > 9 9 e e s I A D / X.y.K D  .@.@.v.b. X:XqXyXtXtXtX",
"/.'.).(.l.l.l.h.h.0.z.z. .P N >.:.;.q B A B ~ 1 : : : > b M G A Z A G M b , 9 9 0 0 < U S G  .0.z. .D K n.@.v.v..XOX:XqXtXtXtXtX",
"h.(.l.l.l.l.j.l.h.h.z.D.0.I D / :.t r q I H H M ~ ~ B Z Z Z C Z Z Z Z Z Z Z B ~ 0 b V S N [ >.0.0.E A ( y.n.n.|..X7X5XwXtXtXtXtX",
"U.U.l.d.b.s.j.j.j.z.0.0.9.a G D ^ r e r 1 ~ B S Z Z Z Z Z Z Z Z Z Z Z Z Z Z Z Z S S A v i >.5.0.t.G G y.j.n.|.|.OX:X8XeXtXtXtXtX",
"u.u.d.a.j.j.s.j.h.z.0.0.9.9./ A U s y e e e v Z Z Z Z Z Z Z Z Z Z Z Z Z Z Z Z Z Z Z c u >.>.5.0./ F E y.j.l.).}.*X:XeXyXtXtXtXtX",
"u.u.a.a.s.y.s.y.j.z.0.0.9.9.>.I A I e e 0 M Z Z Z Z Z Z Z Z Z Z Z Z Z Z Z Z Z Z Z Z Z U a >.>.t.P D  .y.j.l.'.oX;X5XqXyXtXtXtXtX",
"h.u.a.s.x.y.n.j.j.h.0.0.9.9.<.i B A M < c Z Z Z Z Z Z Z Z Z Z Z Z Z Z Z Z Z Z Z Z Z Z Z v >.6.v F E t.t.j./.{.oX;X5XeXtXtXtXtXtX",
"T.U.d.f.+.x.x.f.j.h.z.0.9.9.>.:.q B C C Z Z Z Z Z Z Z Z Z Z Z Z Z Z Z Z Z Z Z Z Z Z Z Z Z ^ { G A ] ..t.z.T.`.&X1X4XeXtXtXtXtXtX",
"(.Q.E.c.c.x.c.c.j.j.h.0.0.5.>.y p s c Z Z Z Z Z C x m Z Z Z Z Z Z Z Z m n Z Z Z Z Z Z Z Z S J Z W h ....i.T._.&X1XqXeXyXtXtXtXtX",
"}.].!.!.c.v.c.c.n.j.j.z.0.6.p p u u I Z Z Z Z Z x X % Z Z Z Z Z Z Z Z $ o x V % + l Z Z Z Z Z R [ ..h t.N.N._.%X1XwXeXtXtXtXtXtX",
"oXOX!.~.v.v.v.v.n.s.j.z.6.6.h p u s S Z Z Z Z Z k . @ Z Z Z C Z Z Z Z j   O o   o l Z Z Z Z Z ....t.i.u.N.`.[.%X1X5XyXtXtXtXtXtX",
"9X+X.Xm.m.v.v.v.n.c.a.a.t.h g u u ^ Z Z Z Z Z Z l   O $ O O O x Z Z Z V o   . # m Z Z Z Z Z Z ' i.u.N.T.A._.@X-X4XyXtXtXtXtXtXtX",
"8X7X.X~.m.m.v.v.n.b.f.a.t.6.h h u U Z Z Z Z Z Z m X     . o # n Z Z Z Z n % x Z Z Z Z Z Z Z Z Q N.T.T.^._.XX%X3X0XyXtXtXtXtXtXtX",
"qX8X+X.X~.m.~.~.b.!.k.d.i.h h g g G Z Z Z Z Z Z Z x % j n C Z Z Z Z Z Z Z Z Z Z Z Z Z Z Z Z Z Y N.^._.[.XX&X6X4XwXyXtXtXtXtXtXtX",
"eX8X7X+X+X.X~.|.!.!.W.l.u.i.8.h g C Z Z Z Z Z Z Z Z Z Z Z Z Z Z Z Z Z Z Z Z Z Z Z Z Z Z Z Z Z P _._.H.XX&X;X1X0XwXyXtXtXtXtXtXtX",
"tXuXuX9XOX+XOX X X].Q.Y.R.N.h g g Z Z Z Z Z Z Z Z Z Z Z Z Z Z Z Z Z Z Z Z Z Z Z Z Z Z Z Z Z Z S A.H.XX#X=X>X0XqXrXrXtXtXtXtXtXtX",
"tXtXrXuXuX9XOXOX}.'.'.`.T.T.N.M.h S Z Z Z Z Z Z C V Z Z Z Z Z Z Z Z Z Z Z Z Z Z Z Z Z Z Z Z Z F `.XX@X$X-X,X0X0XrXrXtXtXtXtXtXtX",
"tXtXtXuXqXqX:X*XoXoX{.R.u.N.o.R G Z Z Z Z Z Z Z k + m Z Z Z Z Z Z Z Z Z Z Z Z Z Z Z Z Z Z Z Z Z T (.#X=X>X0X0XeXrXtXtXtXtXtXtXtX",
"tXtXtXtXrXqX0X;XoXoXE.K K ` H F H G Z Z Z Z Z Z # . z Z Z Z Z Z Z Z Z Z Z Z Z Z Z Z Z Z Z Z Z S Z H ).=X>X0XeXeXtXtXtXtXtXtXtXtX",
"tXtXtXtXrXrX0X;Xv.L F S S S F W h #.Z Z Z Z Z Z + . n Z Z Z Z Z Z Z Z Z Z Z V m n m Z Z Z Z Z $.D Z ! ].3XqXeXeXtXtXtXtXtXtXtXtX",
"tXtXtXtXrXqX0Xv.H F Z Z S F _ N.N.8.C Z Z Z Z Z O . j k l l l k l l l l j O X X . $ Z Z Z Z S `.b.! F K L ! ~.*.~.tXtXtXtXtXtXtX",
"tXtXtXtXrX0XqX! F S Z Z F _ S.M.N.7.R Z Z Z Z Z +   . .       .           . O O + l Z Z Z Z ( L.L.'.J Z Z Z Z S ) tXtXtXtXtXtXtX",
"tXtXtXtX0XqX0X%.F S S Y d.S.S.N.N.M.h A Z Z Z Z m j $ @ @ @ @ @ @ @ @ @ @ l C Z Z Z Z Z Z H A.L.I.!.Z Z Z Z Z S *.tXtXtXtXtXtXtX",
"tXtXtXtXuXwX0X}.| @.`.H.H.S.S.N.M.N.8.#.Z Z Z Z Z Z Z Z Z Z Z Z Z Z Z Z Z Z Z Z Z Z Z Z Z +.L.L.XX'.K Z Z Z S &.uXtXtXtXtXtXtXtX",
"tXtXtXtXrXwX0X0X0XL.L.H.H.H.S.A.N.M.M.8.v Z Z Z Z Z Z Z Z Z Z Z Z Z Z Z Z Z Z Z Z Z Z Z _ G.L.L.I.&X].&.&. X5XwXtXtXtXtXtXtXtXtX",
"tXtXtXtXwX0XXX0XL.L.L.L.H.H.S.A.C.N.N.N.8.Q Z Z Z Z Z Z Z Z Z Z Z Z Z Z Z Z Z Z Z Z Z W G.G.G.L.L.$X=X>X<X<X0XwXuXrXtXtXtXtXtXtX",
"tXtXtXtXwX0X0XXX0XL.L.L.H.H.S.S.A.C.N.N.N.` F Z Z Z Z Z Z Z Z Z Z Z Z Z Z Z Z Z Z C _ S.Z.G.G.L.L.$X=X>X<X<X<X0XtXtXrXtXtXtXtXtX",
"tXtXtXrXrX0X0X=XL.L.L.L.H.H.H.S.A.A.A.T._ H H W J S Z Z Z Z Z S Z Z Z Z Z Z Z Z D X.Z.Z.Z.Z.G.L.I.#X-X,X,X<X<X0XtXtXtXtXtXtXtXtX",
"tXtXtXrX0X0X0X0X0XL.L.L.H.H.[.S._.A.g.E S H _ R.R._ Y Z Z Z Z F Z Z Z Z Z Z Y D K N.M.Z.Z.G.G.L.I.=X=X,X,X<XwXwXrXtXtXtXtXtXtXtX",
"tXtXrXrX0X0X=X#XL.L.L.L.H.H.S.H._.} K F Y O.R.R.R.E.E.@.%.Y J H Z F J T _ i.N.Q S W K.Z.Z.G.L.L.L.=X-X0X<X0XqXeXrXtXtXtXtXtXtXtX",
"tXtXrX0X0X0X0X0X0XXXL.Y._ d.G.R.) D H ( R.Y.Y.R.R.E.+.E.X.+.x.x.p.g.d.u.T.N.N.i.K A o.V.Z.Z.L.L.=X=X-X,X<X0XwXrXrXtXtXtXtXtXtXtX",
"tXtXtXtXwX0X<X=X=XL.L.$.D _ O.K H Y O.`.Y.Y.Y.E.E.f.f.x.x.x.x.x.x.p.d.u.T.T.N.N.` D T M.Z.G.L.I.-X=X0X0X0XwXrXrXtXtXtXtXtXtXtXtX",
"tXtXtXtXrX0X<X=X=XI.L.T F Y F H ( R.A.^.`.Y.Y.E.E.f.f.f.x.x.x.x.p.g.f.u.i.N.N.M.N.Y D ` Z.L.L.=X-X0X0X0XwXrXtXtXtXtXtXtXtXtXtXtX",
"tXtXtXrXrX0X0X=X=XI.L.L S H T X.S.A.A.N.N.Y.Y.R.E.f.f.f.x.f.x.f.f.p.g.u.i.N.N.M.M.o.D J T.G.XXXXoX0X0X0XtXtXtXtXtXtXtXtXtXtXtXtX",
"tXtXtXtXrX0X,X=XI.L.Y.J F T $.O.g.u.T.N.T.T.R.d.E.f.b.E.E.E.E.E.f.f.f.g.i.i.8.M.M.M._ S Q R.%.K K oX0X0XtXtXtXtXtXtXtXtXtXtXtXtX",
"tXtXtXtXwX0X,X=X#XL.T.J F S S F J J ` N.N.u.u.d.E.E.E.Q.Q.Q.Y.E.R.E.f.u...T.h M.N.M.] S S F S Z H OXwXrXrXtXtXtXtXtXtXtXtXtXtXtX",
"tXtXtXrXwX0X,X=X#XL.H.R.O.| _ Q T R o.1.8.8.i.u.R.R.Y.Y.].].].].].R.d.d.u.h o.V Z Z Z Z S F S P @.qXrXrXtXtXtXtXtXtXtXtXtXtXtXtX",
"tXtXtXtXrX0X,X=X#XL.L.G.L.G.Z.M.M.1.1.g g h u.T.R.Y.].{.{.{.oX{.'.].Q.u.i.g i L C C D J $.@.) Q.0X0X0XrXtXtXtXtXtXtXtXtXtXtXtXtX",
"tXtXtXtXrX0X,X=XI.I.L.L.L.L.G.M.7.d f f g 8.8.T.`.`.{.oXoXXX&XoXoX{.{.Y.T.g g d 1.M.M.G.L.L.L.=X0X0XrXrXtXtXtXtXtXtXtXtXtXtXtXtX",
"tXtXtXrXwX0X<X=X=XL.L.L.L.L.L.Z.1.f f f d 7.N.`.`.oX&X%X*X%X;X;X-X*XoX[.^.N.7.1.M.M.Z.L.L.I.=X,XrXtXtXtXtXtXtXtXtXtXtXtXtXtXtXtX",
"tXtXtXtXrXwX<X=X0XI.0XI.=XI.L.G.M.1.1.1.M.M.A.H.&X%X;X-X3X3X0X0X0X0X;X&XXXS.Z.Z.Z.G.G.L.L.=XI.,X0XtXtXtXtXtXtXtXtXtXtXtXtXtXtXtX",
"tXtXtXtXrXwX<X<X=XI.=XI.0X=X0XL.L.Z.M.Z.Z.H.XXXX-X0X0X0X0X0X0X0XqX0X0X0X-X#X#XXXL.L.=XL.0XI.0X=X0XrXtXtXtXtXtXtXtXtXtXtXtXtXtXtX",
"tXtXtXtXtXrXwX0X0X0X0X0X0X0X0X0X=X=X#XL.L.-X0X0X0XqX0XrXqXqXrXrXqXrXrXqXqX0X0X0X0X0X0X0X,X,X0X0X0XrXtXtXtXtXtXtXtXtXtXtXtXtXtXtX",
"tXtXtXtXtXtXrXrXwXwX0XwX0XwXwXwXrX0X0X0X0X0X0XrXqXrXrXrXtXtXtXtXtXtXtXtXrXrXrXrXrXwX0X0X0X0X0XwXrXrXtXtXtXtXtXtXtXtXtXtXtXtXtXtX",
"tXtXtXtXtXtXtXrXrXrXrXtXrXrXrXtXtXtXrXrX0XrXrXtXrXrXtXtXtXtXtXtXtXtXtXtXtXtXtXrXrXrXrXwX0XwXwXrXrXtXtXtXtXtXtXtXtXtXtXtXtXtXtXtX",
"tXtXtXtXtXtXtXtXtXtXtXtXtXtXtXtXtXtXtXtXrXrXtXtXtXtXtXtXtXtXtXtXtXtXtXtXtXtXtXtXtXrXrXrXrXrXrXrXtXtXtXtXtXtXtXtXtXtXtXtXtXtXtXtX",
"tXtXtXtXtXtXtXtXtXtXtXtXtXtXtXtXtXtXtXtXtXtXtXtXtXtXtXtXtXtXtXtXtXtXtXtXtXtXtXtXtXtXtXtXrXrXtXtXtXtXtXtXtXtXtXtXtXtXtXtXtXtXtXtX"
};
