/* XPM */
static char *_b58b5826b8b45adeb00569a32dab21b68YR4zYmgNy9CZWn[] = {
/* columns rows colors chars-per-pixel */
"64 64 153 2 ",
"   c None",
".  c #000000",
"X  c #140203",
"o  c #270506",
"O  c #280000",
"+  c #210808",
"@  c #6B0000",
"#  c #7E0A0C",
"$  c #5E1A28",
"%  c #511B2B",
"&  c #6C1825",
"*  c #751722",
"=  c #7D1721",
"-  c #751823",
";  c #771F2C",
":  c #7D1D2A",
">  c #4A2538",
",  c #45283C",
"<  c #552435",
"1  c #5E2333",
"2  c #632E2C",
"3  c #622232",
"4  c #6E5A47",
"5  c #820000",
"6  c #8C0000",
"7  c #84151E",
"8  c #8E151D",
"9  c #941016",
"0  c #94141B",
"q  c #9D131A",
"w  c #9C1A1E",
"e  c #A10000",
"r  c #B20000",
"t  c #BE0F12",
"y  c #A51217",
"u  c #AE1115",
"i  c #A41319",
"p  c #A9151B",
"a  c #A91C1D",
"s  c #B41115",
"d  c #BA1114",
"f  c #BE1A17",
"g  c #B21418",
"h  c #B51C19",
"j  c #B81C19",
"k  c #9F271E",
"l  c #A5251E",
"z  c #AD221D",
"x  c #B3241C",
"c  c #BD221D",
"v  c #821620",
"b  c #861C27",
"n  c #8E1B25",
"m  c #921A23",
"M  c #A91F22",
"N  c #9C2924",
"B  c #902F28",
"V  c #87332C",
"C  c #A82022",
"Z  c #BF2320",
"A  c #B42F29",
"S  c #CE0000",
"D  c #CD0E0F",
"F  c #D30000",
"G  c #DC0000",
"H  c #D40D0D",
"J  c #DA0909",
"K  c #CF100F",
"L  c #D1100F",
"P  c #C30F11",
"I  c #C90F10",
"U  c #C41413",
"Y  c #CC1513",
"T  c #C51916",
"R  c #CA1816",
"E  c #C61C19",
"W  c #C81A18",
"Q  c #D11111",
"!  c #D01C19",
"~  c #D01D13",
"^  c #E30404",
"/  c #EE0101",
"(  c #ED0B08",
")  c #ED130E",
"_  c #EB1410",
"`  c #E61F19",
"'  c #EC1B15",
"]  c #C0221F",
"[  c #C92C19",
"{  c #D6231E",
"}  c #C5391E",
"|  c #E62918",
" . c #CF2923",
".. c #CE3129",
"X. c #C63922",
"o. c #D4352D",
"O. c #D4382F",
"+. c #D9392F",
"@. c #CE3C31",
"#. c #D43D32",
"$. c #D93F33",
"%. c #E9352A",
"&. c #BC4325",
"*. c #BE5D27",
"=. c #DA4F28",
"-. c #C24A3D",
";. c #D24639",
":. c #D2493B",
">. c #D9473A",
",. c #AA7D64",
"<. c #DE715B",
"1. c #E06350",
"2. c #DF7D64",
"3. c #6C8631",
"4. c #649534",
"5. c #AA9F3B",
"6. c #B09337",
"7. c #AAA53D",
"8. c #A3AB3F",
"9. c #8AB44D",
"0. c #A2BA44",
"q. c #AC8D6F",
"w. c #BCBF60",
"e. c #E6886D",
"r. c #E89778",
"t. c #E99879",
"y. c #EAA17F",
"u. c #9EC146",
"i. c #93CF4C",
"p. c #9BCE4A",
"a. c #9ED34A",
"s. c #9BDD4E",
"d. c #96DC4E",
"f. c #A1CA48",
"g. c #A3C045",
"h. c #9AE24F",
"j. c #99E550",
"k. c #9FE75B",
"l. c #A0E75C",
"z. c #B7D96A",
"x. c #B8D96B",
"c. c #B9D369",
"v. c #A7E968",
"b. c #A3E862",
"n. c #ADEA72",
"m. c #CAA683",
"M. c #E4A987",
"N. c #E4AC89",
"B. c #EBAD89",
"V. c #EBA684",
"C. c #ECB48E",
"Z. c #EDBD95",
"A. c #EEC29A",
/* pixels */
"                                                                                                                                ",
"                                                                                                                                ",
"                                                                                                                                ",
"                                                                                                                                ",
"                                                                                                                                ",
"                                                                                                                                ",
"                        H                                                 H                                                     ",
"                      H H                                               H H                                                     ",
"                      H H H                                             H H                                                     ",
"                      H H H                                           H H H                                                     ",
"                      H H H                                           H H H                                                     ",
"                    H H H H                                           H H H                                                     ",
"                    H H H H                                           H H H H                                                   ",
"                    H H H H H                                         H H H                                                     ",
"                      H H H H                                         H H H                                                     ",
"                      H H H H H                                     H H H H                                       . .           ",
"                      H H H H H Y R R R R R R R R R R R R R R R W E H H H H                                   . . . . .         ",
"                      H H H H H Y R R R R R R R R R R R R R R Y Q Q H H H H                                 . . . @ . . .       ",
"                        H H H H Y Y Y R R R W W W W W W W R R Q H H H H H                                   . . / / . . .       ",
"                          H H H Q Y Y R R R R R R R R R R R W Y Q H H Q Q                             .     . . . . . .         ",
"                          Q L H Q Q ! o.#.#.O.o.+.+.X.} } } &.X.[ ~ H L Q                         . . . .   . . . . . .         ",
"                      A c R Y Y Q L +.r.Z.Z.C.B.B.B.w.f.f.a.s.g.6.*.Q Q R ] A                   . . . . . .   . . .             ",
"                      Z W Y R R Y Y ;.C.A.A.A.Z.Z.Z.c.s.s.h.j.s.p.7.W Q Q Y R                 . . .   . . . .   .               ",
"                      E R +.<.2...U :.Z.A.%.( _ A.A.x.j.j.=.| b.h.0.E Y Q Q Q                 . .   . . . . . .                 ",
"                      E R #.e.y.@.U ;.Z.A.( / / A.A.x.j.l.( ( n.j.u.c U Y Y R                 . .   . . . . .                   ",
"                      c R { >.1. .Y ;.B.A.' / ` A.A.z.j.k.) ( v.j.u.x Y Y T c                         . . . .                   ",
"                      z U H L Q H H #.y.Z.A.A.A.A.A.z.j.j.j.j.j.j.u.x Y K f N                       . . . .                     ",
"                      V N j U Y H H +.t.Z.A.A.A.A.A.z.j.j.j.j.j.h.0.f Y U z B             . . .   . . . .                       ",
"                          j U Y H H $.V.A.A.A.m.4 4 9.j.j.j.j.j.s.7.R Y U l             . . . . . . .                           ",
"                            j f Y Y :.Z.A.A.A.q.. . 4.j.j.j.j.j.a.5.T j               . . G / . . .                             ",
"                            N N a h -.M.N.N.N.,.X X 3.p.p.p.i.d.s.8.z N               . . / / . .                               ",
"                  /             - 8 p M M C C a 9 9 w l l k 2                         . . . . . .                               ",
"                  /             u d P t t P P P P P P t P P 8                   . .   . . . . .                                 ",
"                  / /       & 7 d P D D D H H H H H H D D D y 7         .     . . . . . . .                                     ",
"              / / / / /     7 0 t D D H H H H H H H H H D D u 8 & %   . . .   . . . . .                                         ",
"                  / / / / J P H H H H H H H H H H H H H H H D D s 0     . . . . / ^ . .                                         ",
"                    / / / / / J H H H H H H H H H H H H H H H H D P     . . . . ^ S . .                                         ",
"                      / / / ^ ^ H H H H H H H H H H H H H H H H D I   r . . . . . . .                                           ",
"                          / / ^ H H H H H H H H H H H H H H H H P / e F 5 . . . . .                                             ",
"                            y H H H H H H H H H H H H H H H H H t o O 6 e .     .                                               ",
"                            i H H H H H H H H H H H H H H H H H # . . +                                                         ",
"                            u H H H H H H H H H H H H H H H H H d q                                                             ",
"                            7 u P H H H H H H H H H H H D H D P q *                                                             ",
"                            & q t D H H H H H H H H H D D H P s 7                                                               ",
"                                y d P P P P P P P P P P D D s                                                                   ",
"                                $ = 0 0 q i q q 8 v v 0 s P 0                                                                   ",
"                                > < < < <           < < 1 3 <                                                                   ",
"                                , , , , ,           , , , , ,                                                                   ",
"                                , , , , ,           , , , , ,                                                                   ",
"                                , , , , ,           , , , , ,                                                                   ",
"                                < , , , ,           , , , , ,                                                                   ",
"                            H H s i w m ;           : b m n m d H                                                               ",
"                          H H H H U d g n           w p d d U D H H                                                             ",
"                            H H H Y U s m           p d I I D H H H                                                             ",
"                                                                                                                                ",
"                                                                                                                                ",
"                                                                                                                                ",
"                                                                                                                                ",
"                                                                                                                                ",
"                                                                                                                                ",
"                                                                                                                                ",
"                                                                                                                                ",
"                                                                                                                                ",
"                                                                                                                                "
};
