/* XPM */
static char *result[] = {
/* columns rows colors chars-per-pixel */
"64 64 121 2 ",
"   c #9BCCEC",
".  c gray70",
"X  c #A4C2D5",
"o  c gray80",
"O  c #B1CEE1",
"+  c #9B9B9B",
"@  c #9FBDD0",
"#  c DimGray",
"$  c #6A6A6A",
"%  c #87A4B8",
"&  c #87A4B7",
"*  c gray36",
"=  c #434343",
"-  c #6D6D6D",
";  c gray51",
":  c #838383",
">  c #747474",
",  c gray29",
"<  c #656565",
"1  c #505050",
"2  c #585858",
"3  c #565656",
"4  c gray19",
"5  c #6F6F6F",
"6  c gray56",
"7  c #797979",
"8  c #3A3A3A",
"9  c gray44",
"0  c gray39",
"q  c #6F6F70",
"w  c #8F8F90",
"e  c #7A7879",
"r  c #393A3A",
"t  c #5A5B5B",
"y  c #706F6F",
"u  c #393939",
"i  c #5A5A5A",
"p  c gray27",
"a  c #70706F",
"s  c #908F90",
"d  c #908F8F",
"f  c #79797A",
"g  c #464646",
"h  c #444445",
"j  c #444444",
"k  c gray28",
"l  c #8F8F91",
"z  c #8F9090",
"x  c #919090",
"c  c gray57",
"v  c #919192",
"b  c #989898",
"n  c #A7A7A7",
"m  c gray66",
"M  c #A0A0A0",
"N  c #909090",
"B  c #706F70",
"V  c #989896",
"C  c #B4B3B3",
"Z  c #B3B3B5",
"A  c #B3B3B4",
"S  c #B4B4B4",
"D  c #787777",
"F  c gray67",
"G  c #969591",
"H  c #949284",
"J  c #A4A295",
"K  c #A3A196",
"L  c #A9A79E",
"P  c #888887",
"I  c #9F9B8C",
"U  c #90896C",
"Y  c #787256",
"T  c #605C50",
"R  c #5F5D51",
"E  c #646359",
"W  c gray48",
"Q  c #72705E",
"!  c #8A8363",
"~  c #888164",
"^  c #77756D",
"/  c gray25",
"(  c #656365",
")  c #787979",
"_  c gray47",
"`  c gray31",
"'  c #746F5F",
"]  c #949076",
"[  c #A7A7A8",
"{  c #3B3A39",
"}  c #888787",
"|  c #3A393A",
" . c #878887",
".. c #A09B8B",
"X. c #A7A6A6",
"o. c #797978",
"O. c #878788",
"+. c #948F76",
"@. c #A7A7A6",
"#. c #3A393C",
"$. c #464546",
"%. c #504F50",
"&. c gray23",
"*. c #888786",
"=. c #858484",
"-. c #6F7070",
";. c #807F7F",
":. c #AFAFAF",
">. c #9F9F9F",
",. c #9C9B9C",
"<. c #B3B4B4",
"1. c #979797",
"2. c gray35",
"3. c #4E4E4E",
"4. c #646464",
"5. c gray33",
"6. c gray45",
"7. c #888888",
"8. c gray53",
"9. c #7E7E7E",
"0. c #9A9A9A",
/* pixels */
"                        . . . . . . . . . . . . . . . . . . . . . . . . . . . . . . . . . . . . . . X                           ",
"                        . . . . . . . . . . . . . . . . . . . . . . . . . . . . . . . . . . . . . . X                           ",
"                        . . . . . . . . . . . . . . . . . . . . . . . . . . . . . . . . . . . . . . X                           ",
"                        . . . . . . . . . . . . . . . . . . . . . . . . . . . . . . . . . . . . . . X                           ",
"                        . . . . . . . . . . . . . . . . . . . . . . . . . . . . . . . . . . . . . . X                           ",
"                        o o o o o o o o o o o o o o o o o o o o o o o o o o o o o o o o o o o o o o O                           ",
"                        + + + + + + + + + + + + + + + + + + + + + + + + + + + + + + + + + + + + + + @                           ",
"                        # # # # # # # $ # # # # # # # # # # # $ # # # # $ # # # # # # # # # # # # # %                           ",
"                        # # # # # # # # $ # # # # # # # # # # # # # # # # # # # # # # # # # # # # # %                           ",
"                        # # # # # # # # $ # # # # # # $ # # # $ # # $ # # # # # # # # # # # # # # # &                           ",
"                        # # # # # # $ # # # # # # # # # # # # # # # # # # # # # # # # $ # # # # # # %                           ",
"                        # # # # * = - ; : > , - ; ; ; ; , < ; ; > 1 - ; ; ; ; 2 < : : : = 1 # # # # %                           ",
"                        # # # # 3 4 5 6 6 7 8 9 6 6 6 6 8 0 6 6 7 = 5 6 6 6 6 1 0 6 6 6 4 = # # # # %                           ",
"                        # # # # 3 4 5 6 6 7 8 5 6 6 6 6 8 0 6 6 7 = 5 6 6 6 6 1 0 6 6 6 4 = # # # # %                           ",
"                        # # # # 3 4 5 6 6 7 8 5 6 6 6 6 8 0 6 6 7 = 5 6 6 6 6 1 0 6 6 6 4 = # # # # %                           ",
"                        # # # # 3 4 5 6 6 7 8 5 6 6 6 6 8 0 6 6 7 = 5 6 6 6 6 1 0 6 6 6 4 = # # # # %                           ",
"                        # # # # 3 4 5 6 6 7 8 5 6 6 6 6 8 0 6 6 7 = 5 6 6 6 6 1 0 6 6 6 4 = # # # # %                           ",
"                        # # # # 3 4 5 6 6 7 8 5 6 6 6 6 8 0 6 6 7 = 5 6 6 6 6 1 0 6 6 6 4 = # # # # %                           ",
"                        # # # # 3 4 5 6 6 7 8 5 6 6 6 6 8 0 6 6 7 = 5 6 6 6 6 1 0 6 6 6 4 = # # # # %                           ",
"                        # # # # 3 4 5 6 6 7 8 5 6 6 6 6 8 0 6 6 7 = 5 6 6 6 6 1 0 6 6 6 4 = # # # # %                           ",
"                        # # # # 3 4 5 6 6 7 8 5 6 6 6 6 8 0 6 6 7 = 5 6 6 6 6 1 0 6 6 6 4 = # # # # %                           ",
"                        # # # # 3 4 5 6 6 7 8 5 6 6 6 6 8 0 6 6 7 = 5 6 6 6 6 1 0 6 6 6 4 = # # # # %                           ",
"                        # # # # 3 4 5 6 6 7 8 5 6 6 6 6 8 0 6 6 7 = 5 6 6 6 6 1 0 6 6 6 4 = # # # # %                           ",
"                        # # # # 3 4 5 6 6 7 8 5 6 6 6 6 8 0 6 6 7 = 5 6 6 6 6 1 0 6 6 6 4 = # # # # %                           ",
"                        # # # # 3 4 5 6 6 7 8 5 6 6 6 6 8 0 6 6 7 = 5 6 6 6 6 1 0 6 6 6 4 = # # # # %                           ",
"                        # # # # 3 4 q w 6 e r t y 5 5 9 u 0 6 6 7 = i 5 5 5 5 p 0 6 6 6 4 = # # # # %                           ",
"                        # # # # 3 4 a s d f g = h j j j k 0 6 6 7 , j j j = j j 0 6 6 6 4 = # # # # %                           ",
"                        # # # # 3 4 a w l z x c v c c c c b n m M c c c c c c c N 6 6 6 4 = # # # # %                           ",
"                        # # # # 3 4 B V w + C Z A S . . . . . . . . . . . . . . n 6 6 6 4 = # # # # %                           ",
"                        # # # # 3 4 D F G H J K L . . . . . . . . . . . S . . . n 6 6 6 4 = # # # # %                           ",
"                        # # # # 3 4 P I U Y T R E 5 5 5 5 5 5 5 5 5 5 5 5 5 5 5 W N 6 6 4 = # # # # %                           ",
"                        # # # # 3 4 Q ! ~ ^ / ( ) 7 7 7 7 7 7 _ 7 7 7 7 7 7 7 ` 0 6 6 6 4 = # # # # %                           ",
"                        # # # # 3 4 ' ] [ 7 { B 6 6 6 6 6 6 6 6 6 6 6 6 6 6 6 1 0 6 6 6 4 = # # # # %                           ",
"                        # # # # 3 4 } . [ 7 | B 6 6 6 6 6 6 6 6 6 6 6 6 6 6 6 1 0 6 6 N 4 = # # # # %                           ",
"                        # # # # 3 4  ...X.o.8 9 6 6 6 6 6 6 6 6 6 6 6 6 6 6 6 1 0 6 6 6 4 = # # # # %                           ",
"                        # # # # 3 4 O.+.@.o.#.$.%.1 1 1 1 1 1 1 1 1 1 1 1 1 1 &.0 6 6 6 4 = # # # # %                           ",
"                        # # # # 3 4 *.. [ =.-.-.5 5 5 5 5 5 5 5 5 5 5 5 5 5 5 5 W 6 6 6 4 = # # # # %                           ",
"                        # # # # 3 4 ;.:.>.,.A <.A . . . . . . . . . . . . . . . n 6 6 6 4 = # # # # %                           ",
"                        # # # # 3 4 q 1.6 + . . C S . . . . . . . . . . . . . . n 6 6 6 4 = # # # # %                           ",
"                        # # # # 3 4 5 6 6 + . . . S . S . . . . . . . S . . . . n 6 6 6 4 = # # # # %                           ",
"                        # # # # 3 4 5 6 6 7 k 2.0 0 0 0 k 0 6 6 7 , 2.0 0 0 0 3.0 6 6 6 4 = # # # # %                           ",
"                        # # # # 3 4 5 6 6 7 8 5 6 6 6 6 u 0 6 6 7 = 5 6 6 6 6 1 4.6 6 6 4 = # # # # %                           ",
"                        # # # # 3 4 5 6 6 7 8 9 6 6 6 6 8 0 6 6 7 = 9 6 6 6 6 1 0 6 6 6 4 = # # # # %                           ",
"                        # # # # 3 4 5 6 6 7 8 5 6 6 6 6 8 0 6 6 7 j 9 6 6 6 6 1 0 6 6 6 4 = # # # # %                           ",
"                        # # # # 3 4 5 6 6 7 8 5 6 6 6 6 8 0 6 6 7 = 5 6 6 6 6 1 0 6 6 6 4 = # # # # %                           ",
"                        # # # # 3 4 5 6 6 7 8 5 6 6 6 6 8 0 6 6 7 = 9 6 6 6 6 1 0 6 6 6 4 = # # # # %                           ",
"                        # # # # 3 4 9 6 6 W 8 9 6 6 6 6 8 0 6 6 7 j 9 6 6 6 6 1 0 N 6 6 4 = # # # # %                           ",
"                        # # # # 3 4 9 6 6 7 8 5 6 6 6 6 8 0 6 6 7 = 5 6 6 6 6 1 0 6 6 6 4 = # # # # %                           ",
"                        # # # # 3 4 5 6 6 7 8 5 6 6 6 6 u 0 6 6 7 = 9 6 6 6 6 1 0 6 6 6 4 = # # # # %                           ",
"                        # # # # 3 4 9 6 6 7 u 9 6 6 6 6 8 0 6 6 7 = 5 6 6 6 6 1 0 6 6 6 4 = # # # # %                           ",
"                        # # # # 3 4 9 6 6 7 8 g 1 1 1 ` 8 0 6 6 7 = p ` 1 1 1 &.0 6 6 6 4 = # # # # %                           ",
"                        # # # # 3 4 5 6 6 7 k = = = = = k 0 6 6 7 , = = = = = j 0 6 6 6 4 = # # # # %                           ",
"                        # # # # 3 4 5 6 6 + . . . . . . . . . . . . . . . . . . n 6 6 6 4 = # # # # %                           ",
"                        # # # # 3 4 5 6 6 + . . . . . . S . . . . . . . . . . . n 6 6 6 4 = # # # # %                           ",
"                        # # # # 3 4 5 6 6 + . . . . . . . . . . . S . . S . . . n 6 6 6 4 = # # # # %                           ",
"                        # # # # 3 4 5 6 6 + . . . . . . . . . . . . . . . . . . n 6 6 6 4 = # # # # %                           ",
"                        # # # # 3 4 5 6 6 + . . . . . . . . S S . . . . . . . . n 6 6 6 4 = # # # # %                           ",
"                        # # # # 3 4 5 6 6 + S . . . . . . . . . . . . . . . . . n 6 6 6 4 = # # # # %                           ",
"                        # # # # 3 4 p 1 1 5.* * * * * * * * * * * * * * * * * * 2 1 1 1 4 = # # # # %                           ",
"                        # # # # 6.7.8.8.8.8.8.8.8.8.8.8.8.8.8.8.8.8.8.8.8.8.8.8.8.7.8.8.7.9.# # # # %                           ",
"                        # # # # ; S . . . . . . . . . . . . . . . . . . . . . . . . . . . + $ # # # %                           ",
"                        # # # # ; . S . . . . . . . . . . . . . . . . . . . . . . . . . . + # # # # %                           ",
"                        # # # # ; . . . . . . . . . . . . . . . . . . . . . . . . . . . . 0.# # # # %                           ",
"                        # # # # ; . . . . . . . . . . . . . . . . . . . . . . . . . . . . 0.# # # # %                           "
};
