/* XPM */
static char *_6f036d1f44e4daaf613f048067543fa7G0CJaDjecl9e3n9[] = {
/* columns rows colors chars-per-pixel */
"64 64 10 1 ",
"  c None",
". c #1B1929",
"X c #915146",
"o c #222035",
"O c #45283C",
"+ c #EEC39A",
"@ c #99E550",
"# c #6F3F35",
"$ c black",
"% c white",
/* pixels */
"                                                                ",
"                                                                ",
"                                                                ",
"                                                                ",
"                                                                ",
"                                                                ",
"                                                                ",
"                                                                ",
"                                                                ",
"                                                                ",
"                                                                ",
"                                                                ",
"                                                                ",
"                                                                ",
"                                                                ",
"                                                                ",
"                          XXXXXXXXXXXXXX                        ",
"                          XXXXXXXXXXXXXX                        ",
"                        XXXXXXXXXXXXXXXXXX                      ",
"                        XXXXXXXXXXXXXXXXXX                      ",
"                      XXXX##++++++@@@@@@XXXX                    ",
"                      XXXXX#++++++@@@@@@XXXX                    ",
"                      XX++##++$$++@@%%@@##XX                    ",
"                      XX++##++$$++@@%%@@##XX                    ",
"                      ######++++++@@@@@@####                    ",
"                      ######++++++@@@@@@####                    ",
"                        ####++++$$@@@@@@##                      ",
"                        ####++++$$@@@@@@##                      ",
"                          oooooooooooo                          ",
"                          oooooooooooo                          ",
"                        oo.o........o.oo                        ",
"                        oo............oo                        ",
"                        oo............oo                        ",
"                        oo............oo                        ",
"                        oo............oo                        ",
"                        oo............oo                        ",
"                        oo............oo                        ",
"                        oo............oo                        ",
"                          oooooooooooo                          ",
"                          oooooooooooo                          ",
"                          OOOO    OOOO                          ",
"                          OOOO    OOOO                          ",
"                          OOOO    OOOO                          ",
"                          OOOO    OOOO                          ",
"                          OOOO    OOOO                          ",
"                          OOOO    OOOO                          ",
"                                                                ",
"                                                                ",
"                                                                ",
"                                                                ",
"                                                                ",
"                                                                ",
"                                                                ",
"                                                                ",
"                                                                ",
"                                                                ",
"                                                                ",
"                                                                ",
"                                                                ",
"                                                                ",
"                                                                ",
"                                                                ",
"                                                                ",
"                                                                "
};
