/* XPM */
static char *_6780c73e180413b91757df91c21390f7Id99NihbcBHgUud[] = {
/* columns rows colors chars-per-pixel */
"64 64 84 1 ",
"  c white",
". c #DED4D2",
"X c #DED7D5",
"o c #EBE5E8",
"O c #E1DBDD",
"+ c #DDD1CF",
"@ c #E3D6D7",
"# c #E7E0E2",
"$ c #E1E1E0",
"% c #E8E2E4",
"& c #E2DEE0",
"* c #E6D8DE",
"= c #DED9D8",
"- c #EAE0E4",
"; c #E3D9D9",
": c #E9DDE1",
"> c #E7DBDE",
", c #EEE7EB",
"< c #E3E1E5",
"1 c #C5BDC1",
"2 c #E5E4E6",
"3 c #ECE2E6",
"4 c #A1958C",
"5 c #E4DDDE",
"6 c #A59990",
"7 c #DFD7DD",
"8 c #7C706B",
"9 c #F0ECF0",
"0 c #9D9188",
"q c #DFDDDB",
"w c #C6C1C7",
"e c #DBD4D7",
"r c #6F605B",
"t c #F2F0F4",
"y c #D8D0CF",
"u c #6B5D54",
"i c #D9CDCA",
"p c #E2D4DB",
"a c #E1D3D6",
"s c #E1D9E2",
"d c #877976",
"f c #EEEAF1",
"g c #BFB6BD",
"h c #7B6B5D",
"j c #796B67",
"k c #756563",
"l c #E7E8EA",
"z c #FCFAFB",
"x c #CCC6CC",
"c c #D5C9CB",
"v c #73655B",
"b c #E6DFE9",
"n c #FEFDFD",
"m c #EBE7F2",
"M c #C2BAC0",
"N c #D8CCD2",
"B c #685951",
"V c #6C5B5D",
"C c #E8E1EC",
"Z c #BCB1B9",
"A c #B0A59D",
"S c #E4DBE4",
"D c #B5B2B3",
"F c #817473",
"G c #E8E4EE",
"H c #827367",
"J c #CDC6BF",
"K c #B6ACB4",
"L c #8F8278",
"P c #DAD0D8",
"I c #E3DDE7",
"U c #EDE4ED",
"Y c #655349",
"T c #564436",
"R c #BFB9B7",
"E c #B0A7AF",
"W c #5E4C42",
"Q c #AB9F98",
"! c #ACA2A8",
"~ c #8B7D82",
"^ c #F9F5F7",
"/ c #958883",
"( c #4E3B2C",
") c #B6AFAA",
/* pixels */
"TdQQAAAAQAAdWYd6AAAAAAAAAAAAAA4YT/AQ0LHHHHHhTW8H8HHH8HdH8HL6Q6dB",
"kNt^^^z^^z  LFSU9tt^^^^^nzzzzz Aj^    nzzn  L8bt^^znzzzzznn    1",
"kEciyXO.y.. 6kgccciii.a5#55OOinJjxbICGbpaSS QkMNii=&<O=X&2=q$q =",
"uKX.==qq$q. 6VMNPa@;;@>oooo25ynJvxmGUmUmUCI 4VMeyeXO&$2<f22&qqzX",
"uK;OX=X===. 6V1NNa@@@.@-#,o%;XnJkcmmmmUmmCS 6VMePeO=&&O2l<<&$=^X",
"rK..=OqX.q= 6V1N+++a..;##oo%&=nJ8NUGmmUmUIs Ar1e7&<<&&O&l22<$=^X",
"uK..=&q=qq. 6V1Na+++++.;###O5O JjxUCmUUUUIp ArgP7&&<<&&&<<ll$X^X",
"VDX+;;X=q== 6V1i++@+y.+.:;;55O JkxbICCbCC*NnAVgPPO&&&OOO&q<2&$n.",
"VZX=XX.qqqX 6VMii+a+i++.;X.;;X JkxbsbCS*I*P AVgePO&&&O&O$&&$$$zX",
"VZ;X;==X=5. 4VMPyi+7@+i75;;..y Jjx*PPPppspP ArgNeOO&O=O&&<&q$=^e",
"r!+.X;X.=$yn6VEepy.OO>55>.@...zJjM*ppP***SPzQrKe7O&%&#&&$<&&2=^=",
"u6!))))DDRMt0V!EKDDZggDgD))DMMf6rKKgMMgg1gZU0r!DgMw1111111M1wR$R",
"(Yruvvvvvvjv(TBBBuuBuuuruuurrr8YTrkkkkkkkkjdYW8888dFFF88jrrvvvhW",
"W)JJiyiiJJJ1r(h04464/LLLLdHHHHu(Y66666666660W(YhhvhhhhvhhHHdddhT",
"8y99,ooo99t 4Tqz     nn        uFz n   zz   4T2                H",
"HR=Xyiicy.cn6W1i=XXXXXXXO=X=X9 Hrx&=qqq=.=q 6YP#o>;5#ooo#o,,ot 4",
"8M5=X++++XizAWRyXiy...XX=y..y# LBx&q222&=qq 4rw7->@;;5ooo%%%:, 6",
"8R;XX...+.+nAYRe;+y+..y.;..X.5 /ux<X=$#Oq&= 4uMX3>>5-oof9ff35, Q",
"8R@i..+..+y QWDe=y++..y.XX..+; 0ux5X=&<22%X 0rR.-:;3;3o,9tfo;o 6",
"8R.i+XXXX;ynQYR..+.X5+X=;;..iX 0Bx5X=q22&&= 0rw@:o33-:,9f99,:, 6",
"8M..X++.X;y QWRy.+y+;X+XX...+. 4rx5=;&o%O;= 4rx>33f3o3U99,o3:, 6",
"j1;..ii.+.+ 6WDi.i..X;..X...+@ 0uw5OOO&255= 0rx5,-f,3--,,o3;a- 0",
"j1;++++++;. 4BRi++.X;O..X.+@.; 4B1&O&===&O7 0vx5,-,33-:->;;;@: 0",
"j1.+i+.++;y 4rMiXX;5O###%#O..; 0Bw%&&;;==OO 4vx:33,-:3:::>;;@3 /",
"v1;+c++iy+Jn4vRi55O555#%%##O.@ 0uw&O&XX.eO= 6vx:U333-o*>->>@+# L",
"vR;.+iiiy.i 0vRy55XO5###2o#5.; 0Bw#OOOey.ee 4vw:U3::U:@>::>>;o d",
"k1@.+icii+. 4rgy==;;OOO5%%#&.; 0uw2eXO.e77N 0kws3-*>->a*>:@;*, d",
"j1+i+iii+++ 4u)i@.y+@=;O&##&e; 0BwOe7OOXeey 4v1a>**@@@a**>*>@3 L",
"jRcciccic+N 0u)c@...e.+.OO75e. 4B177esO7eey 4j17:*aa@+a>*@*>@3 L",
"kg+cc+i+cci 4rEZcxxxJ111xcNNxJ90Bg7eIIIs7eNz0kZ17aNPNcNNNPNNcpzH",
"8!ZgZg1gMM1^/YZ!EEE!!!!!!!EEEZ*8B!Kg1wwwMggfLWMKZgZZKKZKKKZZZwUh",
"W~dFFFFFFFdQu(k88jjkrkkjjj8jjkr(TF8Fd~~dF8F/Y(r8Fdd~~~~~~ddF8jjT",
"(rH8HHHH888u(TBHhhhhvhhhhhhhhvvW(h/0LL/6QQ6hTTvhvvvHHhhhhvvhvhvT",
"kp^zzzzzzn  HF,znn    nnnn     )BIz n       Hdtzn              A",
"jZa**pa*p*: 6j1Nyee=O==yeq$22q JVgyP7&<<<2$ 6jxp7@@:#:oooo###5 =",
"rZ*****>:>p 6VMcyy=qX$2=q2lll$nJYMe7<G<&Gl< 4rxSS5>;#o9ft,oo#O .",
"VZpa@p*@>:* 4B1Nceq=.&&q$llll$nJYZe7&2G2<2& 4Vx*s%#Oo9ttto,ooo X",
"VKpa@p**3-* 6V1ye==.X$&q$$lllq JBZeeeO<&<<2 6rca@o:-,tttt9,,,#zX",
"VKNp::>*3*p 6Vwy=XXq=$qq$22$$qnJYgs77O7<<ll 4rcN@%#o,9ttt99oo&zX",
"VZaS:---3*a 4V1yyq&&$&q$2$$$$=zJWMssS<<&$fl 0Vca*%#3o9999,3;#%nX",
"VZ:>:-3U3>* 6Vwye&<22$=&$$qq$XnJWM7sI<&&Ol2 0VN*S-#o,,,o,o>5##nX",
"rZ**>**:@>: 4V1Ne&&$qX=q&$$$$q JWM777OO=&l2 4VPbb>:ooo3,o#5#%5z.",
"rE:>*::->3> 6VDNyO&q=.X.=q$$2qzJWKs7OO===q< 6Vw3-:3,,f,oof,%#5^X",
"k!Zw1111wwxzLr!EDDDDD))DDDDDRD$6B!EgggDDDDwtHjEDgg11wxxxxx1M1RlJ",
"Tk8FFFFF8FF8TTrrBBuBBuuuuBBrurBT(urrvrukvrkv(WuuuuBujFFFjrvvj8LB",
"W06A))))RJJQY(ud0464446644464QLTYRJJJJJiycJRYThd//Ldhhhh8dLHhHY(",
"d9      nz  dWbz               v82tt^tttt^  hut               ^v",
"8w%&<&O52<& 4r1y@XeO&#&<o2#o2t /Bw;eOO=5<#O Ljxe7sbIG7eb<OsSbt L",
"8P9fo:#5#,% 0VgNaes5%%%oo%%22l 4Yx#O#%#3%o# /8xIGGCIb7ebIIIs7o 0",
"8P9,,-:-:3# 0VZNe7%#oo%#,%#222 0Yw3>:%-3--; 0jwsbIsIsIIGGbbbIm 4",
"8PmGU3-3--U 4BZN7>O#,o29t9l922 AY1:%---:-3; 4j1sIISISIbmGGGbIG Q",
"8N,5:3:33-b 4uKc&O;O##fttt99l2 RW13#-;@;>#> 0jwsCbbCbbGGmmGIs% Q",
"8x,>>ooUU,% 6B!cO;OO5#otttt9f2 RTMo>:>:--:@ 0kw7CCbsICGGmmmSpo Q",
"jxo:U->33,- 4Y!Np;;>>#2t99tll$ RTM:>*>:33:; 0k1sISSbsbCGmmmIp3 A",
"jw,-3:;:--b 0YENaaO#:%2,f,ll<O RTg-:::::-:* 0k1IsSsSSsGmmfmmGG A",
"jw,:-:-#-UG 0BKc+a@%%22#%o#<<& )WM3:-->>--> 0kwsCSCbSsGfmfmmmm A",
"8x3>>:3#:,I 4BKca@;5#%#%#%#%<< QW13-->>---> 0kwsbbIbCGCmmfGmGG A",
"81,:**-Ssbp 4VKcSO@5#5%o2%%&&l 6YM:-*@@>::@ 0kw7sIIIISbCmmGGCG Q",
"8M,C:@*7s-* 4uKNO55#5o2oo%&<<l 6BM::*@aa@;* 0k17sSSbs7SICbbbbC Q",
"jwUb:>p77sb 4BEN7O##,,2l,2%##l 4Bg@*@p*@@+P 0kwPSS77s7ssSCI7sb Q",
"8wSpS7ppsSs 4YKPS#%l99f9floof9 6BR+aap+P*ac 0kgPIbS7ss7peP77sbnQ",
"jgpp**p*pSS 4YEZcNyeO==7eee==& 4BZ*aap*ap*N 4kZgNNNNNNcxxwxcxP^0",
"kEKZZggggZM^0TKZZgM1wwww11wwxythB!!KZZggZMgULYgKEEEKKEEEEEE!KgPj",
"T~~ddd~d~~/6Y(rdLLLLL//LLLL~dFv(Tdd~~~//~/0EB(jddFdFdddddFF88FkT"
};
