/* XPM */
static char *_95c72af47634070dea1212fa2631555C28LQrt1D2nmcqaE[] = {
/* columns rows colors chars-per-pixel */
"64 64 9 1 ",
"  c #9BCCEC",
". c #9ACBEB",
"X c #4D6675",
"o c #0F1316",
"O c #4F6878",
"+ c #4A6271",
"@ c black",
"# c #0E1215",
"$ c #536E7F",
/* pixels */
"        .XooO.        .XooO.      .XooO.       .XooO.           ",
"        +@@@@+        +@@@@+      +@@@@+       +@@@@+           ",
"        #@@@@#        #@@@@#      #@@@@#       #@@@@#           ",
"        @@@@@@        @@@@@@      @@@@@@       @@@@@@           ",
"        @@@@@@        @@@@@@      @@@@@@       @@@@@@           ",
"        @@@@@@        @@@@@@      @@@@@@       @@@@@@           ",
"        @@@@@@        @@@@@@      @@@@@@       @@@@@@           ",
"        @@@@@@        @@@@@@      @@@@@@       @@@@@@           ",
"        @@@@@@        @@@@@@      @@@@@@       @@@@@@           ",
"        @@@@@@        @@@@@@      @@@@@@       @@@@@@           ",
"        @@@@@@        @@@@@@      @@@@@@       @@@@@@           ",
"        @@@@@@        @@@@@@      @@@@@@       @@@@@@           ",
"        @@@@@@        @@@@@@      @@@@@@       @@@@@@           ",
"        @@@@@@        @@@@@@      @@@@@@       @@@@@@           ",
"        @@@@@@        @@@@@@      @@@@@@       @@@@@@           ",
"        @@@@@@        @@@@@@      @@@@@@       @@@@@@           ",
"        @@@@@@        @@@@@@      @@@@@@       @@@@@@           ",
"        @@@@@@        @@@@@@      @@@@@@       @@@@@@           ",
"        @@@@@@        @@@@@@      @@@@@@       @@@@@@           ",
"        @@@@@@        @@@@@@      @@@@@@       @@@@@@           ",
"        @@@@@@        @@@@@@      @@@@@@       @@@@@@           ",
"        @@@@@@        @@@@@@      @@@@@@       @@@@@@           ",
"        @@@@@@        @@@@@@      @@@@@@       @@@@@@           ",
"        @@@@@@        @@@@@@      @@@@@@       @@@@@@           ",
"        @@@@@@        @@@@@@      @@@@@@       @@@@@@           ",
"        @@@@@@        @@@@@@      @@@@@@       @@@@@@           ",
"        @@@@@@        @@@@@@      @@@@@@       @@@@@@           ",
"        @@@@@@        @@@@@@      @@@@@@       @@@@@@           ",
"        @@@@@@        @@@@@@      @@@@@@       @@@@@@           ",
"        @@@@@@        @@@@@@      @@@@@@       @@@@@@           ",
"        @@@@@@        @@@@@@      @@@@@@       @@@@@@           ",
"        @@@@@@        @@@@@@      @@@@@@       @@@@@@           ",
"        @@@@@@        @@@@@@      @@@@@@       @@@@@@           ",
"        @@@@@@        @@@@@@      @@@@@@       @@@@@@           ",
"        @@@@@@        @@@@@@      @@@@@@       @@@@@@           ",
"        @@@@@@        @@@@@@      @@@@@@       @@@@@@           ",
"        @@@@@@        @@@@@@      @@@@@@       @@@@@@           ",
"        @@@@@@        @@@@@@      @@@@@@       @@@@@@           ",
"        @@@@@@        @@@@@@      @@@@@@       @@@@@@           ",
"        @@@@@@        @@@@@@      @@@@@@       @@@@@@           ",
"        @@@@@@        @@@@@@      @@@@@@       @@@@@@           ",
"        @@@@@@        @@@@@@      @@@@@@       @@@@@@           ",
"        @@@@@@        @@@@@@      @@@@@@       @@@@@@           ",
"        @@@@@@        @@@@@@      @@@@@@       @@@@@@           ",
"        @@@@@@        @@@@@@      @@@@@@       @@@@@@           ",
"        @@@@@@        @@@@@@      @@@@@@       @@@@@@           ",
"        @@@@@@        @@@@@@      @@@@@@       @@@@@@           ",
"        @@@@@@        @@@@@@      @@@@@@       @@@@@@           ",
"        @@@@@@        @@@@@@      @@@@@@       @@@@@@           ",
"        @@@@@@        @@@@@@      @@@@@@       @@@@@@           ",
"        @@@@@@        @@@@@@      @@@@@@       @@@@@@           ",
"        @@@@@@        @@@@@@      @@@@@@       @@@@@@           ",
"        @@@@@@        @@@@@@      @@@@@@       @@@@@@           ",
"        @@@@@@        @@@@@@      @@@@@@       @@@@@@           ",
"        @@@@@@        @@@@@@      @@@@@@       @@@@@@           ",
"        @@@@@@        @@@@@@      @@@@@@       @@@@@@           ",
"        @@@@@@        @@@@@@      @@@@@@       @@@@@@           ",
"        @@@@@@        @@@@@@      @@@@@@       @@@@@@           ",
"        @@@@@@        @@@@@@      @@@@@@       @@@@@@           ",
"        @@@@@@        @@@@@@      @@@@@@       @@@@@@           ",
"        @@@@@@        @@@@@@      @@@@@@       @@@@@@           ",
"        #@@@@#        #@@@@#      #@@@@#       #@@@@#           ",
"        +@@@@+        +@@@@+      +@@@@+       +@@@@+           ",
"        .Ooo$.        .Ooo$.      .Ooo$.       .Ooo$.           "
};
